<?xml version="1.0" encoding="UTF-8"?>
<svg width="20px" height="20px" viewBox="0 0 20 20" version="1.1" xmlns="http://www.w3.org/2000/svg" xmlns:xlink="http://www.w3.org/1999/xlink">
    <!-- Generator: Sketch 52.5 (67469) - http://www.bohemiancoding.com/sketch -->
    <title>approve</title>
    <desc>Created with Sketch.</desc>
    <g id="approve" stroke="none" stroke-width="1" fill="none" fill-rule="evenodd">
        <path d="M13.04933,0.48119389 C8.89330587,-0.89548077 4.30839036,0.777417832 1.78926462,4.27899372 C-0.751416794,7.81056978 -0.535859987,12.7768208 2.11482207,16.1735072 C4.77217083,19.5786381 9.47175368,20.8946457 13.5155549,19.3724147 C17.393133,17.9128507 19.9720369,14.1361621 20.0002593,10.0092492 C19.9707035,5.67722406 17.1573539,1.84186846 13.04933,0.48119389 Z M11.4657653,18.4950763 C7.40707502,19.2535251 3.27549548,16.7732885 1.88548741,12.9290439 C0.460368019,8.98813217 2.17282241,4.55810645 5.7859545,2.49520558 C9.44242017,0.407415684 14.0966694,1.44142169 16.7302403,4.64166249 C17.9626919,6.13922674 18.5904733,8.08479359 18.6038067,10.0092492 C18.5746954,14.1870512 15.5613446,17.7295163 11.4657653,18.4950763 Z M15.0673417,7.64145769 C14.7557844,7.95279283 14.444227,8.26412797 14.1328919,8.57546311 C12.7342171,9.97347123 11.3355423,11.3714793 9.93686749,12.7694875 C9.59242104,13.1137117 9.24819682,13.4579359 8.90375038,13.8021601 C8.82086101,13.8850495 8.7290827,13.9428276 8.63330436,13.9803834 C8.00996741,14.275274 7.44618636,13.5066029 7.04685071,13.1074894 C6.3719579,12.4330411 5.69728732,11.7585927 5.02261673,11.0841443 C4.76061521,10.8225873 4.40927984,10.4819186 4.57772526,10.0679162 C4.83439342,9.43657922 5.51573071,9.29902287 5.99573349,9.77902565 C6.61529265,10.3981404 7.23440735,11.0172551 7.8539665,11.6363698 C8.01018963,11.7925929 8.16641276,11.948816 8.32263589,12.1050392 C9.44530908,10.9830326 10.5679823,9.86080391 11.6904332,8.73879739 C12.3153257,8.1141271 12.9402183,7.4894568 13.565333,6.86478651 C13.9800021,6.45011744 14.5308942,5.72055764 15.1804535,6.21611608 C15.2133426,6.24122733 15.243565,6.2692275 15.2711207,6.298561 C15.3008986,6.32611672 15.3284543,6.35633911 15.3537878,6.38945042 C15.7124566,6.8590087 15.4055659,7.30345572 15.0673417,7.64145769 Z" id="Shape-Copy-19" fill="#C3E6A8" fill-rule="nonzero"></path>
    </g>
</svg>