<?xml version="1.0" encoding="UTF-8"?>
<svg width="24px" height="24px" viewBox="0 0 24 24" version="1.1" xmlns="http://www.w3.org/2000/svg" xmlns:xlink="http://www.w3.org/1999/xlink">
    <!-- Generator: Sketch 52.5 (67469) - http://www.bohemiancoding.com/sketch -->
    <title>back</title>
    <desc>Created with Sketch.</desc>
    <g id="back" stroke="none" stroke-width="1" fill="none" fill-rule="evenodd">
        <g id="Group" transform="translate(12.000000, 12.000000) rotate(-90.000000) translate(-12.000000, -12.000000) " fill="#525252" fill-rule="nonzero">
            <path d="M7,9.675 C6.625,10.05 6.625,10.65 7,11 C7.375,11.375 7.975,11.375 8.325,11 L11.05,8.275 L11.05,17.95 C11.05,18.475 11.475,18.9 12,18.9 C12.525,18.9 12.95,18.475 12.95,17.95 L12.95,8.3 L15.675,11.025 C16.05,11.4 16.65,11.4 17,11.025 C17.175,10.85 17.275,10.6 17.275,10.35 C17.275,10.1 17.175,9.875 17,9.675 L12.675,5.35 C12.5,5.175 12.25,5.075 12,5.075 C11.75,5.075 11.5,5.175 11.325,5.35 L7,9.675 Z" id="Shape"></path>
            <path d="M0.125,12 C0.125,18.55 5.45,23.875 12,23.875 C18.55,23.875 23.875,18.55 23.875,12 C23.875,5.45 18.55,0.125 12,0.125 C5.45,0.125 0.125,5.45 0.125,12 Z M22,12 C22,17.5 17.5,22 12,22 C6.5,22 2,17.5 2,12 C2,6.5 6.5,2 12,2 C17.5,2 22,6.5 22,12 Z" id="Shape"></path>
        </g>
    </g>
</svg>