<?xml version="1.0" encoding="UTF-8"?>
<svg width="30px" height="20px" viewBox="0 0 30 20" version="1.1" xmlns="http://www.w3.org/2000/svg" xmlns:xlink="http://www.w3.org/1999/xlink">
    <!-- Generator: Sketch 52.5 (67469) - http://www.bohemiancoding.com/sketch -->
    <title>billing</title>
    <desc>Created with Sketch.</desc>
    <g id="billing" stroke="none" stroke-width="1" fill="none" fill-rule="evenodd">
        <path d="M19.7150859,18.2592129 L20.5722173,18.2592129 L20.5722173,17.3896945 L19.7150859,17.3896945 L19.7150859,18.2592129 Z M9.42897718,18.2592129 L10.2861087,18.2592129 L10.2861087,17.3896945 L9.42897718,17.3896945 L9.42897718,18.2592129 Z M23.2543036,16.6966918 L22.4572961,17.0210446 L22.7771609,17.8278197 L23.5723102,17.5050827 L23.2543036,16.6966918 Z M12.9681949,16.6966918 L12.1711874,17.0210446 L12.4910522,17.8278197 L13.2862016,17.5050827 L12.9681949,16.6966918 Z M6.74689094,16.6966918 L6.42888428,17.5050827 L7.22403366,17.8278197 L7.54376573,17.0210446 L6.74689094,16.6966918 Z M25.5980764,14.9184742 L24.9920587,15.5332499 L25.5980764,16.1481601 L26.2040941,15.5332499 L25.5980764,14.9184742 Z M15.3119677,14.9184742 L14.70595,15.5332499 L15.3119677,16.1481601 L15.9179854,15.5332499 L15.3119677,14.9184742 Z M4.40311813,14.9184742 L3.7969677,15.5332499 L4.40311813,16.1481601 L5.00913583,15.5332499 L4.40311813,14.9184742 Z M27.062951,12.353947 L26.7432189,13.1607222 L27.538501,13.4850749 L27.8582331,12.6782997 L27.062951,12.353947 Z M16.7768423,12.353947 L16.4571102,13.1607222 L17.2523923,13.4850749 L17.5721244,12.6782997 L16.7768423,12.353947 Z M2.93811081,12.353947 L2.14296143,12.6782997 L2.4626935,13.4850749 L3.25797561,13.1607222 L2.93811081,12.353947 Z M27.4296673,10.4331435 L28.2867988,10.4331435 L28.2867988,9.5636251 L27.4296673,9.5636251 L27.4296673,10.4331435 Z M20.5504506,9.56349046 C20.5565559,9.70930781 20.5722173,9.85283623 20.5722173,10 C20.5722173,10.1452788 20.556025,10.2858451 20.5504506,10.4296428 C20.5578831,10.4297774 20.5647848,10.4296428 20.5722173,10.4296428 C21.1980109,10.4296428 21.6419726,10.8607667 21.6419726,11.3468245 C21.6419726,11.8330169 21.1980109,12.2622558 20.5722173,12.2622558 C20.4893976,12.2622558 20.4203811,12.2370777 20.3445957,12.2232096 C20.2846045,12.5137672 20.2076246,12.797458 20.125203,13.0791291 C20.131441,13.0791291 20.1374136,13.0787252 20.1436516,13.0876116 L20.1436516,13.4732264 C20.1403335,13.7132932 20.3294652,13.9106785 20.566112,13.9141792 C20.8028916,13.9175452 20.997465,13.7255456 21.0007831,13.4854789 C21.0009158,13.4814396 21.0009158,13.4772657 21.0007831,13.4732264 L21.0007831,13.0859959 C21.8410586,12.9067873 22.4992368,12.2179586 22.4992368,11.3501905 C22.4992368,10.3391633 21.6069335,9.56349046 20.5722173,9.56349046 L20.5504506,9.56349046 Z M17.1435587,10.4331435 L18.0006902,10.4331435 L18.0006902,9.5636251 L17.1435587,9.5636251 L17.1435587,10.4331435 Z M1.71439569,10.4331435 L2.57152717,10.4331435 L2.57152717,9.5636251 L1.71439569,9.5636251 L1.71439569,10.4331435 Z M7.7178996,6.96166741 L7.7178996,7.82781974 L8.58684351,7.82781974 C9.3748258,7.82781974 9.7727323,8.20374036 9.9160742,8.67189078 L7.73634823,8.67189078 L7.73634823,9.53131101 L9.9160742,9.53131101 C9.77233413,9.99932679 9.37402946,10.3769978 8.58684351,10.3769978 L7.7178996,10.3769978 L7.7178996,10.9901577 L7.71285609,10.9986401 L7.7178996,11.0071226 L7.7178996,11.2533829 L7.96396986,11.2533829 L10.5473095,13.8366253 L11.1482837,13.2184837 L9.12424292,11.1940057 C10.0412329,10.9963512 10.6307928,10.3037525 10.7933797,9.53804311 L11.9435658,9.53804311 L11.9435658,8.67875752 L10.7951051,8.67875752 C10.7296722,8.36935008 10.5884539,8.07744611 10.3898988,7.81933729 L11.9435658,7.81933729 L11.9435658,6.96166741 L7.73634823,6.96166741 L7.7178996,6.96166741 Z M27.538501,6.51492507 L26.7432189,6.83941242 L27.062951,7.64605297 L27.8582331,7.32170026 L27.538501,6.51492507 Z M17.2523923,6.51492507 L16.4571102,6.83941242 L16.7768423,7.64605297 L17.5721244,7.32170026 L17.2523923,6.51492507 Z M2.4626935,6.51492507 L2.14296143,7.32170026 L2.93811081,7.64605297 L3.25797561,6.83941242 L2.4626935,6.51492507 Z M20.5655811,6.08353193 C20.3288015,6.08730191 20.1399353,6.28495644 20.1436516,6.52515787 L20.1436516,6.52690821 L20.1436516,6.90902236 C20.1372808,6.90902236 20.131441,6.90861844 20.125203,6.91750481 C20.20789,7.19971456 20.284339,7.48407858 20.3445957,7.7751747 C20.4129486,7.76211442 20.4746652,7.73787885 20.5487252,7.7361285 C20.5649175,7.737071 20.5811098,7.737071 20.5973022,7.7361285 C21.2087616,7.74824629 21.6419726,8.16725236 21.6419726,8.64644343 C21.6334783,9.23442528 22.507333,9.23442528 22.4992368,8.64644343 C22.4992368,7.75497839 21.827388,7.09752124 21.0007831,6.90902236 L21.0007831,6.52852392 C21.0044993,6.28845714 20.8156331,6.0908026 20.5789863,6.08703262 C20.5744736,6.08689798 20.569961,6.08689798 20.5655811,6.08703262 L20.5655811,6.08353193 Z M20.4382988,4.35459331 C21.9723226,4.43807139 23.4500714,5.16352277 24.4713825,6.44019873 C26.1053474,8.48298798 26.1332195,11.3907178 24.5400008,13.4663597 C23.0382289,15.4228434 20.479576,16.1235206 18.2183575,15.275141 C19.1614941,13.7418373 19.7150859,11.938307 19.7150859,10 C19.7150859,8.05953872 19.1601669,6.25250771 18.2150394,4.71812686 C18.940376,4.4454767 19.6937173,4.31433534 20.4382988,4.35459331 L20.4382988,4.35459331 Z M9.85754293,4.34611086 C12.9399247,4.34611086 15.429163,6.87024545 15.429163,9.9948836 C15.429163,13.1196564 12.9399247,15.6436563 9.85754293,15.6436563 C6.77516115,15.6436563 4.28592285,13.1196564 4.28592285,9.9948836 C4.28592285,6.87024545 6.77516115,4.34611086 9.85754293,4.34611086 L9.85754293,4.34611086 Z M25.5980764,3.85022418 L24.9920587,4.4649998 L25.5980764,5.07991006 L26.2040941,4.4649998 L25.5980764,3.85022418 Z M15.3119677,3.85022418 L14.70595,4.4649998 L15.3119677,5.07991006 L15.9179854,4.4649998 L15.3119677,3.85022418 Z M4.40311813,3.85022418 L3.7969677,4.4649998 L4.40311813,5.07991006 L5.00913583,4.4649998 L4.40311813,3.85022418 Z M9.85754293,3.47659248 C6.3122199,3.47659248 3.42865865,6.4000754 3.42865865,9.9948836 C3.42865865,13.5898264 6.3122199,16.5133094 9.85754293,16.5133094 C13.402866,16.5133094 16.2862945,13.5898264 16.2862945,9.9948836 C16.2862945,6.4000754 13.402866,3.47659248 9.85754293,3.47659248 L9.85754293,3.47659248 Z M22.7771609,2.17056455 L22.4572961,2.97733974 L23.2543036,3.30169245 L23.5723102,2.49330156 L22.7771609,2.17056455 Z M12.4910522,2.17056455 L12.1711874,2.97733974 L12.9681949,3.30169245 L13.2862016,2.49330156 L12.4910522,2.17056455 Z M7.22403366,2.17056455 L6.42888428,2.49330156 L6.74689094,3.30169245 L7.54376573,2.97733974 L7.22403366,2.17056455 Z M19.7150859,2.60707409 L20.5722173,2.60707409 L20.5722173,1.73755571 L19.7150859,1.73755571 L19.7150859,2.60707409 Z M9.42897718,2.60707409 L10.2861087,2.60707409 L10.2861087,1.73755571 L9.42897718,1.73755571 L9.42897718,2.60707409 Z M19.9226662,0.869653027 C22.5444957,0.805294126 25.1514602,1.90451186 26.9675224,4.0472055 C29.8732486,7.47573077 29.8707268,12.534906 26.9608862,15.9595266 C24.1605429,19.2554294 19.4897205,20.0647628 15.7807488,17.9739064 C16.1915296,17.6592479 16.5786854,17.317661 16.9359784,16.9429522 L16.7149929,17.5050827 L17.5101423,17.8278197 L17.8298744,17.0210446 L17.1233846,16.7339877 C17.3291068,16.5059041 17.5250074,16.2692033 17.709361,16.0224044 C20.3642389,17.1252575 23.4401172,16.3137698 25.2163622,13.9996769 C27.0516694,11.6085686 27.0183557,8.24319048 25.1360642,5.88991666 C23.7242792,4.12516325 21.5498622,3.27422547 19.4169878,3.51900473 C18.8376476,3.58605647 18.2630855,3.73752878 17.7060429,3.96911311 C17.5235474,3.72500707 17.3301686,3.49019133 17.1268355,3.26426196 L17.8298744,2.97733974 L17.5101423,2.17056455 L16.7149929,2.49330156 L16.934253,3.04856539 C16.5780218,2.67533761 16.191795,2.33469322 15.7824742,2.02111187 C17.0852929,1.28731268 18.505174,0.904256035 19.9226662,0.869653027 L19.9226662,0.869653027 Z M9.85754293,0.869653027 C14.833365,0.869653027 18.8578216,4.95226939 18.8578216,10 C18.8578216,13.11077 17.3264523,15.8503319 14.9889175,17.4983506 L14.983874,17.4983506 L14.9755124,17.5101991 C13.5224503,18.5309205 11.761203,19.1338477 9.85754293,19.1338477 C4.88172081,19.1338477 0.857131481,15.0510967 0.857131481,10.0033661 C0.857131481,4.95563544 4.88172081,0.873019079 9.85754293,0.873019079 L9.85754293,0.869653027 Z M9.85754293,0 C4.41838139,0 0,4.48236862 0,10 C0,15.517766 4.41838139,20 9.85754293,20 C11.7404981,20 13.4948437,19.4521415 14.9922356,18.5206878 C19.1040246,21.07956 24.4534648,20.2455871 27.6104374,16.5302743 C30.7932912,12.7843977 30.7968748,7.23162473 27.618799,3.48170888 C26.0296948,1.60668363 23.8815571,0.461014393 21.6151624,0.113772536 C19.3831432,-0.228218282 17.0379104,0.209503036 14.9955537,1.47931225 C13.4974982,0.54664674 11.7418253,0 9.85754293,0 L9.85754293,0 Z" id="Page-1-Copy-5" fill="#9E9E9E"></path>
    </g>
</svg>