<?xml version="1.0" encoding="UTF-8"?>
<svg width="18px" height="19px" viewBox="0 0 18 19" version="1.1" xmlns="http://www.w3.org/2000/svg" xmlns:xlink="http://www.w3.org/1999/xlink">
    <!-- Generator: Sketch 52.5 (67469) - http://www.bohemiancoding.com/sketch -->
    <title>cal</title>
    <desc>Created with Sketch.</desc>
    <g id="cal" stroke="none" stroke-width="1" fill="none" fill-rule="evenodd">
        <g fill="#9A9A9A">
            <path d="M6.063886,4.55843439 L6.063886,0.660657083 C6.063886,0.31612057 5.78132617,0.0361575225 5.43359391,0.0361575225 C5.08582515,0.0361575225 4.80330183,0.31612057 4.80330183,0.660657083 L4.80330183,4.55843439 C4.80330183,4.90300708 5.08582515,5.18293395 5.43359391,5.18293395 C5.78132617,5.18293395 6.063886,4.9029709 6.063886,4.55843439" id="Fill-1"></path>
            <path d="M13.1927586,4.55843439 L13.1927586,0.660657083 C13.1927586,0.31612057 12.9101988,0.0361575225 12.5624665,0.0361575225 C12.2146978,0.0361575225 11.9321744,0.31612057 11.9321744,0.660657083 L11.9321744,4.55843439 C11.9321744,4.90300708 12.2146978,5.18293395 12.5624665,5.18293395 C12.9101988,5.18293395 13.1927586,4.9029709 13.1927586,4.55843439" id="Fill-4"></path>
            <path d="M2.73853022,8.67154701 C2.73853022,9.01608353 3.02109006,9.29604657 3.36882231,9.29604657 L5.69440041,9.29604657 C6.04216917,9.29604657 6.32469249,9.01608353 6.32469249,8.67154701 C6.32469249,8.32697433 6.04216917,8.04704745 5.69440041,8.04704745 L3.36882231,8.04704745 C3.02109006,8.04704745 2.73853022,8.3270105 2.73853022,8.67154701" id="Fill-7"></path>
            <path d="M5.69440406,13.8613869 L3.36882596,13.8613869 C3.02109371,13.8613869 2.73853387,14.1413499 2.73853387,14.4858864 C2.73853387,14.8304591 3.02109371,15.110386 3.36882596,15.110386 L5.69440406,15.110386 C6.04213631,15.110386 6.32469615,14.8304591 6.32469615,14.4858864 C6.32469615,14.1413499 6.04213631,13.8613869 5.69440406,13.8613869" id="Fill-9"></path>
            <path d="M5.69440406,10.9542172 L3.36882596,10.9542172 C3.02109371,10.9542172 2.73853387,11.2341802 2.73853387,11.5787167 C2.73853387,11.9232894 3.02109371,12.2032163 3.36882596,12.2032163 L5.69440406,12.2032163 C6.04213631,12.2032163 6.32469615,11.9232894 6.32469615,11.5787167 C6.32469615,11.2341802 6.04213631,10.9542172 5.69440406,10.9542172" id="Fill-11"></path>
            <path d="M10.1716832,8.04704022 L7.82438093,8.04704022 C7.47661217,8.04704022 7.19408884,8.32700327 7.19408884,8.67153978 C7.19408884,9.01611247 7.47661217,9.29603934 7.82438093,9.29603934 L10.149959,9.29603934 C10.4976913,9.29603934 10.7802511,9.01611247 10.7802511,8.67153978 C10.7802511,8.32700327 10.5194154,8.04704022 10.1716832,8.04704022" id="Fill-13"></path>
            <path d="M10.1716832,13.8613869 L7.82438093,13.8613869 C7.47661217,13.8613869 7.19408884,14.1413499 7.19408884,14.4858864 C7.19408884,14.8304591 7.47661217,15.110386 7.82438093,15.110386 L10.149959,15.110386 C10.4976913,15.110386 10.7802511,14.8304591 10.7802511,14.4858864 C10.7802511,14.1413499 10.5194154,13.8613869 10.1716832,13.8613869" id="Fill-15"></path>
            <path d="M10.1716832,10.9542172 L7.82438093,10.9542172 C7.47661217,10.9542172 7.19408884,11.2341802 7.19408884,11.5787167 C7.19408884,11.9232894 7.47661217,12.2032163 7.82438093,12.2032163 L10.149959,12.2032163 C10.4976913,12.2032163 10.7802511,11.9232894 10.7802511,11.5787167 C10.7802511,11.2341802 10.5194154,10.9542172 10.1716832,10.9542172" id="Fill-17"></path>
            <path d="M11.6713533,8.67154701 C11.6713533,9.01608353 11.9539132,9.29604657 12.3016454,9.29604657 L14.6272235,9.29604657 C14.9749923,9.29604657 15.2575156,9.01608353 15.2575156,8.67154701 C15.2575156,8.32697433 14.9749923,8.04704745 14.6272235,8.04704745 L12.3016454,8.04704745 C11.9539132,8.04704745 11.6713533,8.3270105 11.6713533,8.67154701" id="Fill-19"></path>
            <path d="M12.3016491,15.1103969 L14.6272272,15.1103969 C14.9749594,15.1103969 15.2575193,14.8304338 15.2575193,14.4858973 C15.2575193,14.1413246 14.9749594,13.8613977 14.6272272,13.8613977 L12.3016491,13.8613977 C11.9539168,13.8613977 11.671357,14.1413246 11.671357,14.4858973 C11.671357,14.8304338 11.9539168,15.1103969 12.3016491,15.1103969" id="Fill-21"></path>
            <path d="M12.3016491,12.2032235 L14.6272272,12.2032235 C14.9749594,12.2032235 15.2575193,11.9232605 15.2575193,11.578724 C15.2575193,11.2341513 14.9749594,10.9542244 14.6272272,10.9542244 L12.3016491,10.9542244 C11.9539168,10.9542244 11.671357,11.2341513 11.671357,11.578724 C11.671357,11.9232605 11.9539168,12.2032235 12.3016491,12.2032235" id="Fill-23"></path>
            <path d="M15.6270049,2.44803972 L14.496802,2.44803972 C14.1490698,2.44803972 13.8665099,2.72800277 13.8665099,3.07253928 C13.8665099,3.41711197 14.1490698,3.69703884 14.496802,3.69703884 L15.6270049,3.69703884 C16.2355728,3.69703884 16.7354471,4.1923553 16.7354471,4.7952942 L16.7354471,15.8640904 C16.7354471,16.4670655 16.2355728,16.9623819 15.6270049,16.9623819 L2.36903732,16.9623819 C1.76046937,16.9623819 1.26059513,16.4670655 1.26059513,15.8640904 L1.26059513,4.7952942 C1.26059513,4.1923553 1.76046937,3.69703884 2.36903732,3.69703884 L3.49924016,3.69703884 C3.84697241,3.69703884 4.12953225,3.41711197 4.12953225,3.07253928 C4.12953225,2.72800277 3.84697241,2.44803972 3.49924016,2.44803972 L2.36903732,2.44803972 C1.06496836,2.44803972 1.09533466e-05,3.5032461 1.09533466e-05,4.7952942 L1.09533466e-05,15.8640904 C1.09533466e-05,17.1561747 1.06496836,18.211381 2.36903732,18.211381 L15.6270049,18.211381 C16.9310738,18.211381 17.9960677,17.1561747 17.9960677,15.8640904 L17.9960677,4.7952942 C17.9960677,3.5032461 16.9310738,2.44803972 15.6270049,2.44803972" id="Fill-25"></path>
            <path d="M11.2584012,3.07254652 C11.2584012,2.72797383 10.9758414,2.44804696 10.6281091,2.44804696 L7.36795497,2.44804696 C7.02018621,2.44804696 6.73766288,2.72797383 6.73766288,3.07254652 C6.73766288,3.41708303 7.02018621,3.69704608 7.36795497,3.69704608 L10.606385,3.69704608 C10.9758414,3.69704608 11.2584012,3.41708303 11.2584012,3.07254652" id="Fill-28"></path>
        </g>
    </g>
</svg>