<?xml version="1.0" encoding="UTF-8"?>
<svg width="12px" height="12px" viewBox="0 0 12 12" version="1.1" xmlns="http://www.w3.org/2000/svg" xmlns:xlink="http://www.w3.org/1999/xlink">
    <!-- Generator: Sketch 52.5 (67469) - http://www.bohemiancoding.com/sketch -->
    <title>campaign</title>
    <desc>Created with Sketch.</desc>
    <g id="campaign" stroke="none" stroke-width="1" fill="none" fill-rule="evenodd">
        <g id="Group" fill="#525252">
            <path d="M1.95912436,2.20416174 L0.244838645,2.20416174 C0.145827159,2.20416174 0.0565015837,2.14461135 0.0185950286,2.05301378 C-0.0193115265,1.96141621 0.00161473469,1.85618662 0.0716880735,1.78611328 L1.78597379,0.0718275673 C1.85604718,0.00175420408 1.96079846,-0.0195308571 2.05287436,0.018734449 C2.14435237,0.0565214449 2.20402232,0.145966604 2.20402232,0.244978065 L2.20402232,1.95926378 C2.20402232,2.09462731 2.0943683,2.20416174 1.95912436,2.20416174 Z M0.836037502,1.71436582 L1.7142264,1.71436582 L1.7142264,0.836177045 L0.836037502,1.71436582 Z" id="Shape" fill-rule="nonzero"></path>
            <path d="M11.5102639,8.81616771 L3.67352963,8.81616771 C3.53828569,8.81616771 3.42863167,8.70663328 3.42863167,8.57126976 L3.42863167,3.67331011 C3.42863167,3.53794658 3.53828569,3.42841239 3.67352963,3.42841239 L11.5102639,3.42841239 C11.6455078,3.42841239 11.7551618,3.5379466 11.7551618,3.67331011 L11.7551618,8.57126976 C11.7551618,8.70663328 11.6455078,8.81616771 11.5102639,8.81616771 Z M3.91842759,8.3263718 L11.2653659,8.3263718 L11.2653659,3.91820807 L3.91842759,3.91820807 L3.91842759,8.3263718 Z" id="Shape" fill-rule="nonzero"></path>
            <path d="M7.59177696,11.7551824 L0.734634441,11.7551824 C0.32950058,11.7551824 -5.94367347e-05,11.4256224 -5.94367347e-05,11.0204885 L-5.94367347e-05,1.85786072 L1.8577213,8.01061224e-05 L7.59177696,8.01061224e-05 C7.99691089,8.01061224e-05 8.32647083,0.329640049 8.32647083,0.734773984 L8.32647083,3.91820807 L3.91842759,3.91820807 L3.91842759,8.3263718 L8.32647081,8.3263718 L8.32647081,11.0204885 C8.32647083,11.4256224 7.99691087,11.7551824 7.59177696,11.7551824 Z M0.489736531,2.06066684 L0.489736531,11.0204883 C0.489736531,11.1556126 0.599629641,11.2653862 0.734634441,11.2653862 L7.59177683,11.2653862 C7.72678161,11.2653862 7.83667479,11.1556126 7.83667479,11.0204883 L7.83667479,8.81616747 L3.42863167,8.81616747 L3.42863167,3.42841237 L7.83667489,3.42841237 L7.83667489,0.734773984 C7.83667489,0.599649624 7.72678171,0.489876024 7.59177693,0.489876024 L2.06052742,0.489876024 L0.489736531,2.06066684 Z" id="Shape" fill-rule="nonzero"></path>
            <path d="M7.59153779,7.34725827 C7.53402024,7.34725827 7.47638314,7.32716851 7.43022561,7.28675079 L3.51185873,3.85817936 C3.43508895,3.79097591 3.40806409,3.68311558 3.4439378,3.58769148 C3.47981153,3.49202821 3.57116995,3.42889046 3.67317091,3.42889046 L11.5099051,3.42889046 C11.6119061,3.42889046 11.7032645,3.49202821 11.7391382,3.58769148 C11.775012,3.68311558 11.7479871,3.79097591 11.6712173,3.85817936 L7.75284997,7.28675079 C7.70669243,7.32716853 7.64905533,7.34725827 7.59153779,7.34725827 Z M4.32499648,3.91868638 L7.59153779,6.77686558 L10.8580796,3.91868638 L4.32499648,3.91868638 Z" id="Shape" fill-rule="nonzero"></path>
            <path d="M11.5099051,8.81664602 L3.67317091,8.81664602 C3.5680609,8.81664602 3.47466962,8.74968174 3.44106791,8.64995278 C3.40758576,8.55046298 3.44118749,8.44045021 3.52489286,8.37683415 L6.5264474,6.09287322 C6.61947992,6.0220824 6.74994071,6.02734389 6.83735302,6.10459198 L7.59153781,6.77471314 L8.34572307,6.10459198 C8.43313538,6.02710472 8.56371573,6.02184326 8.65662869,6.09287322 L11.6581832,8.37683415 C11.7418886,8.44045021 11.7754903,8.55046298 11.7420082,8.64995278 C11.7084064,8.74968174 11.6150151,8.81664602 11.5099051,8.81664602 Z M4.39937466,8.32685011 L10.7837014,8.32685011 L8.52042808,6.6046717 L7.75416531,7.28555498 C7.66137193,7.36782585 7.52170357,7.36782585 7.42891021,7.28555498 L6.66264793,6.6046717 L4.39937466,8.32685011 Z" id="Shape" fill-rule="nonzero"></path>
            <path d="M6.61218558,2.20416174 L3.67352963,2.20416174 C3.53828569,2.20416174 3.42863167,2.09462731 3.42863167,1.95926378 C3.42863167,1.82390025 3.53828569,1.71436582 3.67352963,1.71436582 L6.61218556,1.71436582 C6.7474295,1.71436582 6.85708352,1.82390025 6.85708352,1.95926378 C6.85708352,2.09462731 6.74742953,2.20416174 6.61218558,2.20416174 Z" id="Path"></path>
            <path d="M6.61218558,10.2857946 L1.71434596,10.2857946 C1.57910202,10.2857946 1.469448,10.1762602 1.469448,10.0408967 C1.469448,9.90553315 1.57910202,9.79599872 1.71434596,9.79599872 L6.61218556,9.79599872 C6.7474295,9.79599872 6.85708352,9.90553315 6.85708352,10.0408967 C6.85708352,10.1762602 6.74742953,10.2857946 6.61218558,10.2857946 Z" id="Path"></path>
            <path d="M2.20402232,8.57174807 L1.71434596,8.57174807 C1.57910202,8.57174807 1.469448,8.46221363 1.469448,8.32685011 C1.469448,8.19148658 1.57910202,8.08195215 1.71434596,8.08195215 L2.20402229,8.08195215 C2.33926624,8.08195215 2.44892025,8.19148658 2.44892025,8.32685011 C2.44892025,8.46221363 2.33926626,8.57174807 2.20402232,8.57174807 Z" id="Path"></path>
            <path d="M2.20402232,7.10235984 L1.71434596,7.10235984 C1.57910202,7.10235984 1.469448,6.99282541 1.469448,6.85746189 C1.469448,6.72209836 1.57910202,6.61256393 1.71434596,6.61256393 L2.20402229,6.61256393 C2.33926624,6.61256393 2.44892025,6.72209836 2.44892025,6.85746189 C2.44892025,6.99282541 2.33926626,7.10235984 2.20402232,7.10235984 Z" id="Path"></path>
            <path d="M2.20402232,5.63297209 L1.71434596,5.63297209 C1.57910202,5.63297209 1.469448,5.52343766 1.469448,5.38807413 C1.469448,5.2527106 1.57910202,5.14317617 1.71434596,5.14317617 L2.20402229,5.14317617 C2.33926624,5.14317617 2.44892025,5.2527106 2.44892025,5.38807413 C2.44892025,5.52343766 2.33926626,5.63297209 2.20402232,5.63297209 Z" id="Path"></path>
            <path d="M2.20402232,4.16358433 L1.71434596,4.16358433 C1.57910202,4.16358433 1.469448,4.0540499 1.469448,3.91868638 C1.469448,3.78332285 1.57910202,3.67378842 1.71434596,3.67378842 L2.20402229,3.67378842 C2.33926624,3.67378842 2.44892025,3.78332285 2.44892025,3.91868638 C2.44892025,4.0540499 2.33926626,4.16358433 2.20402232,4.16358433 Z" id="Path"></path>
        </g>
    </g>
</svg>