<?xml version="1.0" encoding="UTF-8"?>
<svg width="16px" height="19px" viewBox="0 0 16 19" version="1.1" xmlns="http://www.w3.org/2000/svg" xmlns:xlink="http://www.w3.org/1999/xlink">
    <!-- Generator: Sketch 52.5 (67469) - http://www.bohemiancoding.com/sketch -->
    <title>checkout</title>
    <desc>Created with Sketch.</desc>
    <g id="checkout" stroke="none" stroke-width="1" fill="none" fill-rule="evenodd">
        <path d="M7.15521472,4.58597816 C6.9837791,4.61974737 6.90652535,4.88055414 7.03517901,4.99844484 L11.384473,9.26452012 L0.266703763,9.26452012 L0.22361402,9.26452012 C0.0949603597,9.27296242 -0.00783945531,9.39929542 0.000470709371,9.5253269 C0.0177066065,9.65135839 0.137742319,9.75236448 0.266395979,9.73578139 L11.384473,9.73578139 L7.03517901,14.0018567 C6.93237919,14.0856767 6.92376124,14.2626635 7.01794311,14.3552272 C7.11243276,14.4562333 7.29248633,14.4393487 7.37835803,14.3383426 L12.1053028,9.70201219 C12.1225387,9.69356989 12.1311567,9.67668529 12.1483926,9.66824299 C12.1567027,9.65135839 12.1656285,9.6432176 12.1739386,9.6347753 L12.1739386,9.62633299 C12.1825566,9.62633299 12.1825566,9.61789069 12.1911745,9.60944839 L12.1911745,9.60100609 L12.1997925,9.59256379 L12.1997925,9.58412149 C12.1997925,9.57567919 12.1997925,9.57567919 12.2084104,9.56723689 L12.2084104,9.55879459 C12.2084104,9.55879459 12.2084104,9.55035229 12.2167206,9.54190999 L12.2167206,9.52502539 L12.2167206,9.51658309 L12.2167206,9.47437159 C12.2167206,9.45748699 12.2084104,9.43216009 12.2084104,9.415577 C12.1997925,9.415577 12.1997925,9.4071347 12.1997925,9.4071347 C12.1997925,9.3986924 12.1911745,9.3986924 12.1911745,9.3986924 C12.1828644,9.3902501 12.1828644,9.37336549 12.1739386,9.36492319 L12.1656285,9.35648089 C12.1656285,9.35648089 12.1656285,9.34803859 12.1570105,9.34803859 L12.1570105,9.33959629 L12.1487003,9.33115399 L12.1400824,9.33115399 C12.1317722,9.32271169 12.1317722,9.32271169 12.1228465,9.31426939 L7.37835803,4.66165736 C7.32695812,4.61130507 7.25801453,4.58597816 7.18106857,4.58597816 L7.15521472,4.58597816 Z M6.06596758,0 C5.13953811,0 4.38454426,0.748651136 4.38454426,1.65770598 C4.38454426,1.78373746 4.49596202,1.90192967 4.62461568,1.90192967 C4.75326934,1.90192967 4.86499489,1.78403897 4.86499489,1.65770598 C4.86499489,1.00131713 5.39684543,0.479703567 6.06596758,0.479703567 L14.3185767,0.479703567 C14.9876988,0.479703567 15.5195494,1.00131713 15.5195494,1.65770598 L15.5195494,17.342294 C15.5195494,17.9986829 14.987391,18.5287387 14.3185767,18.5287387 L6.06596758,18.5287387 C5.39684543,18.5287387 4.86499489,17.9986829 4.86499489,17.342294 C4.86499489,17.215961 4.75357713,17.1068141 4.62461568,17.1068141 C4.49596202,17.1068141 4.38454426,17.215961 4.38454426,17.342294 C4.38454426,18.2594897 5.13953811,19 6.06596758,19 L14.3185767,19 C15.2450061,19 16,18.2594897 16,17.342294 L16,1.65770598 C16,0.748952647 15.2450061,0 14.3185767,0 L6.06596758,0 Z" id="Fill-1-Copy-2" stroke="#FF4A4A" stroke-width="0.6"></path>
    </g>
</svg>