<?xml version="1.0" encoding="UTF-8"?>
<svg width="24px" height="22px" viewBox="0 0 24 22" version="1.1" xmlns="http://www.w3.org/2000/svg" xmlns:xlink="http://www.w3.org/1999/xlink">
    <!-- Generator: Sketch 52.5 (67469) - http://www.bohemiancoding.com/sketch -->
    <title>comment</title>
    <desc>Created with Sketch.</desc>
    <g id="comment" stroke="none" stroke-width="1" fill="none" fill-rule="evenodd">
        <g id="noun_254815_cc-copy" fill="#4A4A4A">
            <g id="Layer_1">
                <path d="M3.68872621,17.7822705 L4.89107466,17.7822705 L4.89107466,20.5671418 C4.89107466,20.9091465 5.08344072,21.2511511 5.42010152,21.3977362 C5.56439626,21.4465706 5.708691,21.495487 5.85298574,21.495487 C6.0453518,21.495487 6.23771786,21.4466527 6.3820126,21.3000675 L11.1914064,17.7335182 L20.3292385,17.7335182 C22.3492033,17.7335182 23.9843552,16.0723295 23.9843552,14.0203838 L23.9843552,3.7602452 C23.9843552,1.70821747 22.3491225,0.0471107878 20.3292385,0.0471107878 L3.68872621,0.0471107878 C1.66876141,0.0471107878 0.0336095254,1.70829954 0.0336095254,3.7602452 L0.0336095254,14.0691361 C0.0335287333,16.1211638 1.66876141,17.7822705 3.68872621,17.7822705 L3.68872621,17.7822705 Z M10.9028169,8.78862416 C10.9028169,8.15344927 11.3837725,7.66494159 12.008942,7.66494159 C12.6341115,7.66494159 13.115067,8.15353134 13.115067,8.78862416 C13.115067,9.42371697 12.6341115,9.91230673 12.008942,9.91230673 C11.3837725,9.91230673 10.9028169,9.42379905 10.9028169,8.78862416 L10.9028169,8.78862416 Z M14.7022284,8.78862416 C14.7022284,8.15344927 15.1831839,7.66494159 15.8083534,7.66494159 C16.4336037,7.66494159 16.9144784,8.15353134 16.9144784,8.78862416 C16.9144784,9.42371697 16.4335229,9.91230673 15.8083534,9.91230673 C15.1831031,9.9123888 14.7022284,9.42379905 14.7022284,8.78862416 L14.7022284,8.78862416 Z M7.15147683,8.78862416 C7.15147683,8.15344927 7.63243237,7.66494159 8.25760186,7.66494159 C8.88277135,7.66494159 9.36372689,8.15353134 9.36372689,8.78862416 C9.36372689,9.42371697 8.88277135,9.91230673 8.25760186,9.91230673 C7.63243237,9.91230673 7.15147683,9.42379905 7.15147683,8.78862416 L7.15147683,8.78862416 Z" id="Shape"></path>
            </g>
        </g>
    </g>
</svg>