<?xml version="1.0" encoding="UTF-8"?>
<svg width="17px" height="10px" viewBox="0 0 17 10" version="1.1" xmlns="http://www.w3.org/2000/svg" xmlns:xlink="http://www.w3.org/1999/xlink">
    <!-- Generator: Sketch 52.5 (67469) - http://www.bohemiancoding.com/sketch -->
    <title>customer</title>
    <desc>Created with Sketch.</desc>
    <g id="customer" stroke="none" stroke-width="1" fill="none" fill-rule="evenodd">
        <g id="Group" fill="#525252">
            <path d="M8.16,0.00962363636 C6.674268,0.00962363636 5.46163636,1.19848 5.46163636,2.65507818 C5.46163636,3.54350909 5.91277309,4.33231091 6.60182945,4.81252727 C6.19397782,4.94127273 5.80841782,5.11909091 5.452308,5.33894545 C5.15285455,4.97289091 4.76714618,4.67718182 4.32607964,4.48081636 C4.77189382,4.12158 5.05734545,3.57760545 5.05734545,2.97144182 C5.05734545,1.89509818 4.15972691,1.01507818 3.06185455,1.01507818 C1.96541018,1.01507818 1.06821818,1.89509818 1.06821818,2.97144182 C1.06821818,3.57773636 1.35368836,4.12180909 1.79931709,4.48104364 C0.739908,4.95376364 -1.28342432e-17,6.00174545 -1.28342432e-17,7.21507273 C-0.00189174376,7.34621306 0.0683864735,7.46819322 0.183923748,7.53430463 C0.299461022,7.60041603 0.44235716,7.60041603 0.557894434,7.53430463 C0.673431708,7.46819322 0.743709926,7.34621306 0.741818182,7.21507273 C0.741818182,5.95338182 1.77671018,4.94052727 3.06185455,4.94052727 C3.785628,4.94052727 4.42928509,5.26421818 4.85408727,5.77052727 C3.75821782,6.68816364 3.06185455,8.05187273 3.06185455,9.57143636 C3.0599628,9.7025767 3.13024102,9.82455686 3.24577829,9.89066826 C3.36131557,9.95677966 3.5042117,9.95677966 3.61974898,9.89066826 C3.73528625,9.82455686 3.80556447,9.7025767 3.80367273,9.57143636 C3.80367273,8.17183636 4.48792582,6.93101818 5.54676,6.1524 C5.56793004,6.1401798 5.58780947,6.125928 5.60610545,6.10985455 C6.32336945,5.60070909 7.20537273,5.30052727 8.16,5.30052727 C9.10965709,5.30052727 9.98706109,5.597 10.7018771,6.10052727 C10.7267868,6.12448153 10.7550192,6.14487036 10.7857396,6.16109091 C11.8377676,6.9402 12.5163273,8.17690909 12.5163273,9.57143636 C12.5144355,9.7025767 12.5847137,9.82455686 12.700251,9.89066826 C12.8157883,9.95677966 12.9586844,9.95677966 13.0742217,9.89066826 C13.189759,9.82455686 13.2600372,9.7025767 13.2581455,9.57143636 C13.2581455,8.05201818 12.5623942,6.68836364 11.4667658,5.77070909 C11.8915865,5.26372727 12.5347058,4.94052727 13.2581455,4.94052727 C14.5453855,4.94052727 15.5781818,5.95307273 15.5781818,7.21507273 C15.5762901,7.34621306 15.6465683,7.46819322 15.7621056,7.53430463 C15.8776428,7.60041603 16.020539,7.60041603 16.1360763,7.53430463 C16.2516135,7.46819322 16.3218917,7.34621306 16.32,7.21507273 C16.32,6.00334545 15.5825956,4.95630909 14.5249669,4.48274909 C14.9692604,4.12373091 15.2536364,3.58078182 15.2536364,2.97507818 C15.2536364,1.90014545 14.3560178,1.02053273 13.2581455,1.02053273 C12.1617011,1.02053273 11.2645091,1.90014545 11.2645091,2.97507818 C11.2645091,3.58036182 11.54844,4.12298727 11.9918433,4.48200909 C11.5521305,4.67832727 11.1674422,4.97350909 10.8686193,5.33905455 C10.512324,5.11907273 10.1265044,4.94114545 9.71833745,4.81234545 C10.4072825,4.33212727 10.8583636,3.54342364 10.8583636,2.65507818 C10.8583636,1.19848 9.645732,0.00962363636 8.16,0.00962363636 Z M8.16,0.736896364 C9.244668,0.736896364 10.1165455,1.59167636 10.1165455,2.65507818 C10.1165455,3.71848 9.244668,4.57325455 8.16,4.57325455 C7.075332,4.57325455 6.20345455,3.71848 6.20345455,2.65507818 C6.20345455,1.59167636 7.075332,0.736896364 8.16,0.736896364 Z M3.06185455,1.74235091 C3.75918218,1.74235091 4.31552727,2.28778545 4.31552727,2.97144182 C4.31552727,3.65287273 3.75918218,4.19871455 3.06185455,4.19871455 C2.36678945,4.19871455 1.81003636,3.65287273 1.81003636,2.97144182 C1.81003636,2.28778545 2.36678945,1.74235091 3.06185455,1.74235091 Z M13.2581455,1.74780545 C13.9554731,1.74780545 14.5118182,2.29364727 14.5118182,2.97507818 C14.5118182,3.65873455 13.9559738,4.20235091 13.2581455,4.20235091 C12.5625611,4.20235091 12.0063273,3.65873455 12.0063273,2.97507818 C12.0063273,2.29364727 12.5630804,1.74780545 13.2581455,1.74780545 Z" id="Shape"></path>
        </g>
    </g>
</svg>