<?xml version="1.0" encoding="UTF-8"?>
<svg width="15px" height="12px" viewBox="0 0 15 12" version="1.1" xmlns="http://www.w3.org/2000/svg" xmlns:xlink="http://www.w3.org/1999/xlink">
    <!-- Generator: Sketch 52.5 (67469) - http://www.bohemiancoding.com/sketch -->
    <title>dashboard</title>
    <desc>Created with Sketch.</desc>
    <g id="dashboard" stroke="none" stroke-width="1" fill="none" fill-rule="evenodd">
        <g id="Group" fill="#5E5E5E" fill-rule="nonzero">
            <path d="M1.31506849,3.2952657e-05 C0.592207447,3.2952657e-05 0,0.592241172 0,1.31510145 L0,10.5205809 C0,11.2434412 0.592207447,11.8356494 1.31506849,11.8356494 L13.1506849,11.8356494 C13.873546,11.8356494 14.4657534,11.2434412 14.4657534,10.5205809 L14.4657534,1.31510145 C14.4657534,0.592241172 13.873546,3.2952657e-05 13.1506849,3.2952657e-05 L2.63013699,3.2952657e-05 C2.51157286,-0.00164216146 2.40129119,0.0606515574 2.34152029,0.163061015 C2.28174939,0.265470473 2.28174939,0.392129679 2.34152029,0.494539137 C2.40129119,0.596948595 2.51157286,0.659242313 2.63013699,0.657567199 L13.1506849,0.657567199 C13.5206454,0.657567199 13.8082192,0.945139802 13.8082192,1.31510145 L13.8082192,10.5205809 C13.8082192,10.8905425 13.5206454,11.1781151 13.1506849,11.1781151 L1.31506849,11.1781151 C0.945108,11.1781151 0.657534247,10.8905425 0.657534247,10.5205809 L0.657534247,1.31510145 C0.657534247,0.945139802 0.945108,0.657567199 1.31506849,0.657567199 C1.43363262,0.659242313 1.54391429,0.596948595 1.60368519,0.494539137 C1.66345609,0.392129679 1.66345609,0.265470473 1.60368519,0.163061015 C1.54391429,0.0606515574 1.43363262,-0.00164216146 1.31506849,3.2952657e-05 Z M2.79452055,1.31510145 C2.07212252,1.31510145 1.47945205,1.90777158 1.47945205,2.63016994 C1.47945205,3.3525683 2.07212252,3.94523843 2.79452055,3.94523843 C3.51691858,3.94523843 4.10958904,3.3525683 4.10958904,2.63016994 C4.10958904,1.90777158 3.51691858,1.31510145 2.79452055,1.31510145 Z M4.73630137,1.31510145 C4.61882743,1.32058449 4.51320506,1.38833073 4.45923048,1.49281487 C4.40525589,1.59729901 4.41113139,1.722643 4.47464322,1.82161997 C4.53815504,1.92059693 4.64965155,1.97816573 4.76712329,1.97263569 L11.6712329,1.97263569 C12.0411937,1.97263569 12.3287671,2.2602083 12.3287671,2.63016994 C12.3287671,3.00013158 12.0411937,3.28770419 11.6712329,3.28770419 L4.76712329,3.28770419 C4.64855916,3.28602907 4.53827749,3.34832279 4.47850659,3.45073225 C4.4187357,3.55314171 4.4187357,3.67980091 4.47850659,3.78221037 C4.53827749,3.88461983 4.64855916,3.94691355 4.76712329,3.94523843 L11.6712329,3.94523843 C12.394094,3.94523843 12.9863014,3.35303021 12.9863014,2.63016994 C12.9863014,1.90730966 12.394094,1.31510145 11.6712329,1.31510145 L4.76712329,1.31510145 C4.75685496,1.31461964 4.74656969,1.31461964 4.73630137,1.31510145 Z M2.79452055,1.97263569 C3.16156093,1.97263569 3.45205479,2.26312939 3.45205479,2.63016994 C3.45205479,2.99721049 3.16156093,3.28770419 2.79452055,3.28770419 C2.42748016,3.28770419 2.1369863,2.99721049 2.1369863,2.63016994 C2.1369863,2.26312939 2.42748016,1.97263569 2.79452055,1.97263569 Z M2.79452055,4.60277268 C2.07165945,4.60277268 1.47945205,5.19497925 1.47945205,5.91784117 C1.47945205,6.64070145 2.07165945,7.23290966 2.79452055,7.23290966 L9.69863014,7.23290966 C9.81719426,7.23458478 9.92747593,7.17229106 9.98724683,7.0698816 C10.0470177,6.96747214 10.0470177,6.84081294 9.98724683,6.73840348 C9.92747593,6.63599402 9.81719426,6.5737003 9.69863014,6.57537542 L2.79452055,6.57537542 C2.42455973,6.57537542 2.1369863,6.28780282 2.1369863,5.91784117 C2.1369863,5.54787953 2.42455973,5.26030693 2.79452055,5.26030693 L9.69863014,5.26030693 C9.81719426,5.26198204 9.92747593,5.19968832 9.98724683,5.09727886 C10.0470177,4.9948694 10.0470177,4.8682102 9.98724683,4.76580074 C9.92747593,4.66339128 9.81719426,4.60109756 9.69863014,4.60277268 L2.79452055,4.60277268 Z M11.6712329,4.60277268 C10.9488348,4.60277268 10.3561644,5.19544282 10.3561644,5.91784117 C10.3561644,6.64024117 10.9488348,7.23290966 11.6712329,7.23290966 C12.3936309,7.23290966 12.9863014,6.64024117 12.9863014,5.91784117 C12.9863014,5.19544282 12.3936309,4.60277268 11.6712329,4.60277268 Z M11.6712329,5.26030693 C12.0382733,5.26030693 12.3287671,5.55080556 12.3287671,5.91784117 C12.3287671,6.28487679 12.0382733,6.57537542 11.6712329,6.57537542 C11.3041925,6.57537542 11.0136986,6.28487679 11.0136986,5.91784117 C11.0136986,5.55080556 11.3041925,5.26030693 11.6712329,5.26030693 Z M2.79452055,7.89044391 C2.07212252,7.89044391 1.47945205,8.4831124 1.47945205,9.2055124 C1.47945205,9.9279124 2.07212252,10.5205809 2.79452055,10.5205809 C3.51691858,10.5205809 4.10958904,9.9279124 4.10958904,9.2055124 C4.10958904,8.4831124 3.51691858,7.89044391 2.79452055,7.89044391 Z M4.73630137,7.89044391 C4.61882743,7.89592696 4.51320506,7.9636732 4.45923048,8.06815734 C4.40525589,8.17264148 4.41113139,8.29798547 4.47464322,8.39696243 C4.53815504,8.49593939 4.64965155,8.55350819 4.76712329,8.54797816 L11.6712329,8.54797816 C12.0411937,8.54797816 12.3287671,8.83555076 12.3287671,9.2055124 C12.3287671,9.57547405 12.0411937,9.86304665 11.6712329,9.86304665 L4.76712329,9.86304665 C4.64855916,9.86137154 4.53827749,9.92366526 4.47850659,10.0260747 C4.4187357,10.1284842 4.4187357,10.2551434 4.47850659,10.3575528 C4.53827749,10.4599623 4.64855916,10.522256 4.76712329,10.5205809 L11.6712329,10.5205809 C12.394094,10.5205809 12.9863014,9.92837268 12.9863014,9.2055124 C12.9863014,8.48265213 12.394094,7.89044391 11.6712329,7.89044391 L4.76712329,7.89044391 C4.75685496,7.8899621 4.74656969,7.8899621 4.73630137,7.89044391 Z M2.79452055,8.54797816 C3.16156093,8.54797816 3.45205479,8.83847679 3.45205479,9.2055124 C3.45205479,9.57254802 3.16156093,9.86304665 2.79452055,9.86304665 C2.42748016,9.86304665 2.1369863,9.57254802 2.1369863,9.2055124 C2.1369863,8.83847679 2.42748016,8.54797816 2.79452055,8.54797816 Z" id="Shape"></path>
        </g>
    </g>
</svg>