<?xml version="1.0" encoding="UTF-8"?>
<svg width="18px" height="20px" viewBox="0 0 18 20" version="1.1" xmlns="http://www.w3.org/2000/svg" xmlns:xlink="http://www.w3.org/1999/xlink">
    <!-- Generator: Sketch 52.5 (67469) - http://www.bohemiancoding.com/sketch -->
    <title>delete</title>
    <desc>Created with Sketch.</desc>
    <g id="delete" stroke="none" stroke-width="1" fill="none" fill-rule="evenodd">
        <g id="Group-Copy-7" fill="#FF4A4A" fill-rule="nonzero">
            <g id="Group">
                <path d="M15.96875,4.5 L15.1172027,18.1247566 C15.0513233,19.1788264 14.1772241,20 13.1210976,20 L4.87890244,20 C3.82277588,20 2.94867665,19.1788264 2.88279729,18.1247566 L2.03125,4.5 L0.75,4.5 C0.33578644,4.5 0,4.16421356 0,3.75 C0,3.33578644 0.33578644,3 0.75,3 L17.25,3 C17.6642136,3 18,3.33578644 18,3.75 C18,4.16421356 17.6642136,4.5 17.25,4.5 L15.96875,4.5 Z M14.3724134,4.5 L3.62758612,4.5 L4.34786704,17.5550886 C4.37711257,18.0851637 4.8154673,18.5 5.34634851,18.5 L12.6536519,18.5 C13.1845331,18.5 13.6228879,18.0851637 13.6521334,17.5550886 L14.3724134,4.5 Z M9.0000002,6 C9.3865995,6 9.7000002,6.31340067 9.7000002,6.69999999 L9.7000002,16.3 C9.7000002,16.6865993 9.3865995,17 9.0000002,17 C8.6134009,17 8.3000002,16.6865993 8.3000002,16.3 L8.3000002,6.69999999 C8.3000002,6.31340067 8.6134009,6 9.0000002,6 Z M6.00000018,6 C6.39163718,6 6.7140022,6.30804492 6.73178551,6.69927797 L7.1704848,16.3506704 C7.1860614,16.6933548 6.92088804,16.9837828 6.57820356,16.9993593 C6.56880834,16.9997864 6.55940464,17 6.54999971,17 C6.18542607,17 5.88445403,16.7149972 5.86459773,16.3509647 L5.3381253,6.69896099 C5.31818659,6.33341758 5.59835454,6.02092259 5.96389795,6.00098387 C5.97592085,6.00032808 5.9879594,6 6.00000018,6 Z M12.0000002,6 C12.3660869,6 12.6628589,6.29677196 12.6628589,6.66285873 C12.6628589,6.67489952 12.6625308,6.68693807 12.661875,6.69896098 L12.1381255,16.3010387 C12.1167418,16.6930738 11.792618,17 11.4000001,17 C11.0339132,17 10.7371411,16.7032279 10.7371411,16.337141 C10.7371411,16.3251002 10.7374692,16.3130617 10.738125,16.3010387 L11.261875,6.69896098 C11.2832588,6.30692603 11.6073825,6 12.0000002,6 Z M7,0 L11,0 C12.1045695,0 13,0.8954305 13,2 L13,3 L5,3 L5,2 C5,0.8954305 5.8954305,0 7,0 Z M7.1,1.5 C6.76862913,1.5 6.5,1.76862913 6.5,2.09999996 L6.5,3 L11.5,3 L11.5,2.09999996 C11.5,1.76862913 11.2313709,1.5 10.9,1.5 L7.1,1.5 Z" id="Shape"></path>
            </g>
        </g>
    </g>
</svg>