<?xml version="1.0" encoding="UTF-8"?>
<svg width="14px" height="9px" viewBox="0 0 14 9" version="1.1" xmlns="http://www.w3.org/2000/svg" xmlns:xlink="http://www.w3.org/1999/xlink">
    <!-- Generator: Sketch 52.5 (67469) - http://www.bohemiancoding.com/sketch -->
    <title>dinein</title>
    <desc>Created with Sketch.</desc>
    <g id="dinein" stroke="none" stroke-width="1" fill="none" fill-rule="evenodd">
        <g id="Group-3" fill="#525252">
            <path d="M0.885518909,4.55938397 L0.885518909,7.7894366 C0.885518914,8.0248843 1.08345618,8.21575238 1.32762417,8.21575238 C1.57179216,8.21575238 1.76972943,8.0248843 1.76972944,7.7894366 L1.76972944,4.94733133 L4.66846628,4.94733133 L4.66846628,7.7894366 C4.66846628,8.02488431 4.86640355,8.21575239 5.11057154,8.21575239 C5.35473954,8.21575239 5.5526768,8.02488431 5.5526768,7.7894366 L5.5526768,4.52101554 C5.5526768,4.28556784 5.35473954,4.09469976 5.11057154,4.09469976 L1.68720312,4.09469976 L0.878150488,0.355910282 C0.851382923,0.201782748 0.739308547,0.0741309397 0.586079439,0.0232437157 C0.43285033,-0.0276435083 0.263028965,0.00639102432 0.14351704,0.111939295 C0.024005116,0.217487566 -0.0260397229,0.37763029 0.0130978563,0.529278703 L0.885518909,4.55938397 Z" id="Path"></path>
            <path d="M13.5120452,0.023383966 C13.2719987,-0.0179824674 13.0425443,0.135881933 12.9992031,0.367278703 L12.3080452,4.0904366 L8.89351891,4.0904366 C8.64935091,4.0904366 8.45141365,4.28130468 8.45141365,4.51675239 L8.45141365,7.78517344 C8.45141366,8.02062114 8.64935092,8.2114892 8.89351891,8.2114892 C9.13768689,8.2114892 9.33562416,8.02062114 9.33562417,7.78517344 L9.33562417,4.94306818 L12.2358347,4.94306818 L12.2358347,7.78517344 C12.2358347,8.02062115 12.433772,8.21148923 12.67794,8.21148923 C12.922108,8.21148923 13.1200452,8.02062115 13.1200452,7.78517344 L13.1200452,4.55369976 L13.8657294,0.517910282 C13.9087539,0.287363618 13.7508147,0.0665307203 13.5120452,0.023383966 Z" id="Path"></path>
            <path d="M9.88678207,2.44912081 C10.1309501,2.44912081 10.3288873,2.25825273 10.3288873,2.02280502 C10.3288873,1.78735731 10.1309501,1.59648923 9.88678207,1.59648923 L4.11730838,1.59648923 C3.87314039,1.59648923 3.67520312,1.78735731 3.67520312,2.02280502 C3.67520312,2.25825273 3.87314039,2.44912081 4.11730838,2.44912081 L6.5606768,2.44912081 L6.5606768,7.7894366 C6.5606768,8.02488431 6.75861407,8.21575239 7.00278207,8.21575239 C7.24695006,8.21575239 7.44488733,8.02488431 7.44488733,7.7894366 L7.44488733,2.44912081 L9.88678207,2.44912081 Z" id="Path"></path>
        </g>
    </g>
</svg>