<?xml version="1.0" encoding="UTF-8"?>
<svg width="9px" height="14px" viewBox="0 0 9 14" version="1.1" xmlns="http://www.w3.org/2000/svg" xmlns:xlink="http://www.w3.org/1999/xlink">
    <!-- Generator: Sketch 52.5 (67469) - http://www.bohemiancoding.com/sketch -->
    <title>dineout</title>
    <desc>Created with Sketch.</desc>
    <g id="dineout" stroke="none" stroke-width="1" fill="none" fill-rule="evenodd">
        <g id="Group-11" fill="#525252">
            <polygon id="Fill-1" points="2.24420625 13.68115 4.61514375 12.5290667 2.24420625 11.5309833"></polygon>
            <polygon id="Fill-3" points="4.412475 12.5293 6.78285 13.6813833 6.78285 11.5306333"></polygon>
            <g id="Group-10" transform="translate(0.000000, 0.360033)">
                <path d="M1.713825,5.43275833 C1.713825,6.69625833 1.9787625,7.640675 2.51145,8.267175 C3.0418875,8.897175 3.7107,9.21100833 4.51395,9.21100833 C5.313825,9.21100833 5.9792625,8.89425833 6.5102625,8.263675 C7.0390125,7.63425833 7.305075,6.671175 7.305075,5.37909167 C7.305075,4.15934167 7.0390125,3.23475833 6.5052,2.60825833 C5.9702625,1.981175 5.3076375,1.66734167 4.51395,1.66734167 C3.7107,1.66734167 3.0418875,1.981175 2.51145,2.60475833 C1.9787625,3.22950833 1.713825,4.17334167 1.713825,5.43275833 M0.05895,5.43275833 C0.05895,3.60925833 0.5466375,2.25709167 1.527075,1.379175 C2.3432625,0.650591667 3.3377625,0.284258333 4.51395,0.284258333 C5.8212,0.284258333 6.8893875,0.727591667 7.7162625,1.61659167 C8.547075,2.50325833 8.9605125,3.729425 8.9605125,5.29334167 C8.9605125,6.56384167 8.7771375,7.560175 8.41095,8.286425 C8.0436375,9.01559167 7.5087,9.57850833 6.810075,9.980425 C6.1075125,10.382925 5.3442,10.582425 4.51395,10.582425 C3.185325,10.582425 2.1103875,10.141425 1.2891375,9.25475833 C0.467325,8.372175 0.05895,7.098175 0.05895,5.43275833" id="Fill-5"></path>
            </g>
        </g>
    </g>
</svg>