<?xml version="1.0" encoding="UTF-8"?>
<svg width="14px" height="14px" viewBox="0 0 14 14" version="1.1" xmlns="http://www.w3.org/2000/svg" xmlns:xlink="http://www.w3.org/1999/xlink">
    <!-- Generator: Sketch 52.5 (67469) - http://www.bohemiancoding.com/sketch -->
    <title>download</title>
    <desc>Created with Sketch.</desc>
    <g id="download" stroke="none" stroke-width="1" fill="none" fill-rule="evenodd">
        <g id="Group" fill="#9A9A9A" fill-rule="nonzero">
            <path d="M6.6089566,12.25 L7.17451524,11.6853393 C7.17451524,11.6853393 7.17451524,11.6853393 7.17451524,11.6853393 L12.8947368,6.07010243 C13.2017544,5.75640205 13.2017544,5.27016645 12.8947368,4.95646607 C12.5715605,4.6584507 12.0706371,4.6584507 11.7474608,4.95646607 L7.40073869,9.23847631 L7.40073869,0.78425096 C7.40073869,0.345070423 7.04524469,0 6.59279778,0 C6.14035088,0 5.78485688,0.345070423 5.78485688,0.78425096 L5.78485688,9.25416133 L1.38965836,4.97215109 C1.06648199,4.6584507 0.565558633,4.6584507 0.242382271,4.97215109 C-0.0807940905,5.28585147 -0.0807940905,5.77208707 0.242382271,6.08578745 L6.6089566,12.25 Z" id="Shape"></path>
            <path d="M0.808189655,14 L12.3168103,14 C12.7693966,14 13.125,13.615 13.125,13.125 C13.125,12.635 12.7693966,12.25 12.3168103,12.25 L0.808189655,12.25 C0.355603448,12.25 0,12.635 0,13.125 C0,13.615 0.371767241,14 0.808189655,14 Z" id="Shape"></path>
        </g>
    </g>
</svg>