<?xml version="1.0" encoding="UTF-8"?>
<svg width="25px" height="18px" viewBox="0 0 25 18" version="1.1" xmlns="http://www.w3.org/2000/svg" xmlns:xlink="http://www.w3.org/1999/xlink">
    <!-- Generator: Sketch 52.5 (67469) - http://www.bohemiancoding.com/sketch -->
    <title>edit</title>
    <desc>Created with Sketch.</desc>
    <g id="edit" stroke="none" stroke-width="1" fill="none" fill-rule="evenodd">
        <g id="Group-Copy-8" fill="#9E9E9E" fill-rule="nonzero">
            <path d="M19.1913739,0 C18.8272379,0 18.3826435,0.142320506 18.0739893,0.448178832 L7.57412171,10.852958 C7.47364642,10.9509798 7.41358286,11.0825495 7.40562722,11.2220464 L7.12184701,17.4086719 C7.11338461,17.5719571 7.17703924,17.7308104 7.29623429,17.8438638 C7.41542933,17.9569173 7.57836712,18.0129813 7.74261621,17.9974558 L13.7020005,17.4350353 C13.8333852,17.4209716 13.9557008,17.3619216 14.0478577,17.2680668 L24.5477253,6.8632876 C24.8600887,6.55375104 25,6.11775705 25,5.76481007 C25,5.30410332 24.8102271,4.92848236 24.5477253,4.66633254 L20.2910222,0.448178832 C20.0085945,0.168309957 19.6207263,0 19.1913739,0 Z M18.996275,1.11605317 C19.0192782,1.10921976 19.056395,1.12484099 19.1913739,1.12484099 C19.3111731,1.12484099 19.4323924,1.17913144 19.4928904,1.23908265 L23.7495935,5.45723636 C23.7906042,5.49820588 23.8648792,5.63817547 23.8648792,5.76481007 C23.8648792,5.97284941 23.8953977,5.92790077 23.7495935,6.07238378 L22.1621979,7.6454036 L17.2847256,2.81210247 L18.8721212,1.23908265 C18.9621175,1.14990245 18.9732707,1.12287814 18.996275,1.11605317 Z M16.4865938,3.60300629 L17.5330333,4.63996908 L9.81775897,12.2765849 L8.77131946,11.2484099 L16.4865938,3.60300629 Z M18.3311652,5.4308729 L21.3640661,8.43630742 L13.6487918,16.081711 L12.6023522,15.0447482 L18.8721212,8.83175933 C19.0527562,8.66364377 19.1024533,8.39883724 18.9948875,8.17760936 C18.8873218,7.95638148 18.6473595,7.82987417 18.4021102,7.86509911 C18.2770288,7.88300607 18.1615554,7.9417662 18.0739893,8.03206769 L11.8042204,14.2450566 L10.6158908,13.0762765 L18.3311652,5.4308729 Z M8.47867112,12.5402195 L12.3983852,16.424436 L8.28357223,16.8111001 L8.47867112,12.5402195 Z M0.541693479,16.8726148 C0.338894735,16.8819947 0.156555723,16.9978879 0.063377801,17.1766284 C-0.0298001214,17.355369 -0.0196570727,17.5697944 0.0899852678,17.7391139 C0.199627608,17.9084333 0.392107326,18.006916 0.594902267,17.9974558 L4.56782515,17.9974558 C4.77250782,18.0003243 4.96289338,17.8937594 5.06607947,17.7185668 C5.16926556,17.5433742 5.16926556,17.3266965 5.06607947,17.1515039 C4.96289338,16.9763113 4.77250782,16.8697463 4.56782515,16.8726148 L0.594902267,16.8726148 C0.577175756,16.8717906 0.55941999,16.8717906 0.541693479,16.8726148 Z" id="Shape"></path>
        </g>
    </g>
</svg>