<?xml version="1.0" encoding="UTF-8"?>
<svg width="16px" height="19px" viewBox="0 0 16 19" version="1.1" xmlns="http://www.w3.org/2000/svg" xmlns:xlink="http://www.w3.org/1999/xlink">
    <!-- Generator: Sketch 52.5 (67469) - http://www.bohemiancoding.com/sketch -->
    <title>edit logs</title>
    <desc>Created with Sketch.</desc>
    <g id="edit-logs" stroke="none" stroke-width="1" fill="none" fill-rule="evenodd">
        <g id="Group-Copy-20" fill="#9E9E9E">
            <path d="M4.9685,7.16384444 C5.12957778,7.32492222 5.22162222,7.54363333 5.22162222,7.77374444 C5.22162222,8.00385556 5.12957778,8.22256667 4.9685,8.38364444 C4.80742222,8.54472222 4.58871111,8.63676667 4.3586,8.63676667 C4.12848889,8.63676667 3.90977778,8.54472222 3.7487,8.38364444 C3.58762222,8.22256667 3.49557778,8.00385556 3.49557778,7.77374444 C3.49557778,7.54363333 3.58762222,7.32492222 3.7487,7.16384444 C3.90977778,7.00276667 4.12848889,6.91072222 4.3586,6.91072222 C4.58871111,6.91072222 4.80742222,7.00276667 4.9685,7.16384444 Z" id="Path"></path>
            <path d="M4.9685,14.0802667 C5.12957778,14.2413444 5.22162222,14.4714556 5.22162222,14.6901667 C5.22162222,14.9202778 5.12957778,15.1503889 4.9685,15.3000667 C4.80742222,15.4611444 4.58871111,15.5531889 4.3586,15.5531889 C4.12848889,15.5531889 3.90977778,15.4611444 3.7487,15.3000667 C3.58762222,15.1503889 3.49557778,14.9202778 3.49557778,14.6901667 C3.49557778,14.4714556 3.58762222,14.2413444 3.7487,14.0802667 C3.90977778,13.9191889 4.12848889,13.8271444 4.3586,13.8271444 C4.58871111,13.8271444 4.80742222,13.9191889 4.9685,14.0802667 Z" id="Path"></path>
            <path d="M4.9685,10.6277556 C5.12957778,10.7888333 5.22162222,11.0075444 5.22162222,11.2376556 C5.22162222,11.4563667 5.12957778,11.6864778 4.9685,11.8475556 C4.80742222,12.0086333 4.58871111,12.1006778 4.3586,12.1006778 C4.12848889,12.1006778 3.90977778,12.0086333 3.7487,11.8475556 C3.58762222,11.6864778 3.49557778,11.4563667 3.49557778,11.2376556 C3.49557778,11.0075444 3.58762222,10.7888333 3.7487,10.6277556 C3.90977778,10.4666778 4.12848889,10.3746333 4.3586,10.3746333 C4.58871111,10.3746333 4.80742222,10.4666778 4.9685,10.6277556 Z" id="Path"></path>
            <path d="M11.2636222,10.3746333 C11.7354556,10.3746333 12.1266444,10.7544222 12.1266444,11.2376556 C12.1266444,11.7094889 11.7354556,12.1006778 11.2636222,12.1006778 L7.04013333,12.1006778 C6.5683,12.1006778 6.17711111,11.7094889 6.17711111,11.2376556 C6.17711111,10.7542111 6.5683,10.3746333 7.04013333,10.3746333 L11.2636222,10.3746333 Z" id="Path"></path>
            <path d="M11.2636222,13.8271444 C11.7354556,13.8271444 12.1266444,14.2183333 12.1266444,14.6901667 C12.1266444,15.1736111 11.7354556,15.5531889 11.2636222,15.5531889 L7.04013333,15.5531889 C6.5683,15.5531889 6.17711111,15.1734 6.17711111,14.6901667 C6.17711111,14.2183333 6.5683,13.8271444 7.04013333,13.8271444 L11.2636222,13.8271444 Z" id="Path"></path>
            <path d="M15.5791556,3.27412222 L15.5791556,15.7258778 C15.5791556,17.5325667 14.1176333,18.9943 12.3107333,18.9943 L3.31148889,18.9943 C1.5048,18.9943 0.0430666667,17.5327778 0.0430666667,15.7258778 L0.0430666667,3.27412222 C0.0430666667,1.46743333 1.50458889,0.0057 3.31148889,0.0057 L12.3109444,0.0057 C14.1176333,0.0057 15.5791556,1.46722222 15.5791556,3.27412222 Z M13.8529,15.7258778 L13.8529,3.27412222 C13.8529,2.4225 13.1623556,1.73195556 12.3107333,1.73195556 L3.31148889,1.73195556 C2.45986667,1.73195556 1.76932222,2.4225 1.76932222,3.27412222 L1.76932222,15.7258778 C1.76932222,16.5775 2.45986667,17.2680444 3.31148889,17.2680444 L12.3109444,17.2680444 C13.1623556,17.2680444 13.8529,16.5775 13.8529,15.7258778 Z" id="Shape" fill-rule="nonzero"></path>
            <path d="M11.2636222,3.4466 C11.7354556,3.4466 12.1266444,3.83778889 12.1266444,4.30962222 C12.1266444,4.78145556 11.7354556,5.17264444 11.2636222,5.17264444 L7.04013333,5.17264444 C6.5683,5.17264444 6.17711111,4.78145556 6.17711111,4.30962222 C6.17711111,3.83778889 6.5683,3.4466 7.04013333,3.4466 L11.2636222,3.4466 Z" id="Path"></path>
            <path d="M11.2636222,6.91072222 C11.7354556,6.91072222 12.1266444,7.29051111 12.1266444,7.77374444 C12.1266444,8.24557778 11.7354556,8.63676667 11.2636222,8.63676667 L7.04013333,8.63676667 C6.5683,8.63676667 6.17711111,8.24557778 6.17711111,7.77374444 C6.17711111,7.2903 6.5683,6.91072222 7.04013333,6.91072222 L11.2636222,6.91072222 Z" id="Path"></path>
            <path d="M4.9685,3.69993333 C5.12957778,3.86101111 5.22162222,4.07972222 5.22162222,4.30983333 C5.22162222,4.53994444 5.12957778,4.75865556 4.9685,4.91973333 C4.80742222,5.08081111 4.58871111,5.17285556 4.3586,5.17285556 C4.12848889,5.17285556 3.90977778,5.08081111 3.7487,4.91973333 C3.58762222,4.75865556 3.49557778,4.53994444 3.49557778,4.30983333 C3.49557778,4.07972222 3.58762222,3.86101111 3.7487,3.69993333 C3.90977778,3.53885556 4.12848889,3.44681111 4.3586,3.44681111 C4.58871111,3.44681111 4.80742222,3.53885556 4.9685,3.69993333 Z" id="Path"></path>
        </g>
    </g>
</svg>