<?xml version="1.0" encoding="UTF-8"?>
<svg width="28px" height="20px" viewBox="0 0 28 20" version="1.1" xmlns="http://www.w3.org/2000/svg" xmlns:xlink="http://www.w3.org/1999/xlink">
    <!-- Generator: Sketch 52.5 (67469) - http://www.bohemiancoding.com/sketch -->
    <title>feedback</title>
    <desc>Created with Sketch.</desc>
    <g id="feedback" stroke="none" stroke-width="1" fill="none" fill-rule="evenodd">
        <g id="Page-1-Copy-6" fill="#9E9E9E">
            <path d="M21.8469442,9.61002186 C21.8469442,8.81531488 21.2099354,8.1825425 20.4426438,8.1825425 C19.9068955,8.1825425 19.4435971,8.49155334 19.1975426,8.93310507 C19.0816651,9.12432572 18.5315115,10.110361 18.8356106,11.3760134 C19.154115,12.700561 20.2544222,13.6277012 20.2978498,13.6718456 L20.963775,12.8623879 C20.9493698,12.8477449 20.0807118,12.0971823 19.8345514,11.12579 C19.8200402,11.0522519 19.805635,10.9639631 19.7911238,10.890425 C19.9793454,10.9933568 20.1964834,11.0522519 20.4281326,11.0522519 C21.2099354,11.0375012 21.8469442,10.4047288 21.8469442,9.61002186 L21.8469442,9.61002186 Z M16.3308972,11.0375012 C16.099248,11.0375012 15.8821099,10.9787138 15.6938884,10.8756743 C15.7083995,10.9492124 15.7229107,11.0228582 15.737316,11.111147 C15.9689652,12.0824316 16.8521343,12.8477449 16.8666455,12.8477449 L16.2006143,13.6570949 C16.1571867,13.6129505 15.0568796,12.6858103 14.7383752,11.3612627 C14.434382,10.095718 14.9845355,9.1096827 15.1003072,8.91835438 C15.3319564,8.47680265 15.8097659,8.16779181 16.3454083,8.16779181 C17.1272111,8.16779181 17.7497087,8.81531488 17.7497087,9.59527117 C17.7497087,10.4047288 17.1126999,11.0375012 16.3308972,11.0375012 L16.3308972,11.0375012 Z M7.39815697,11.7880638 L5.61741341,11.7880638 L3.63393708,13.3333333 L3.63393708,11.8028145 L1.9111323,11.8028145 C1.41881157,11.8028145 1.01345196,11.3907641 1.01345196,10.890425 L1.01345196,1.92792618 C1.01345196,1.42758702 1.41881157,1.01542901 1.9111323,1.01542901 L17.9813579,1.01542901 C18.4736786,1.01542901 18.8790382,1.42758702 18.8790382,1.92792618 L18.8790382,3.75281286 L19.8634679,3.75281286 L19.8634679,1.92792618 C19.8634679,0.868352768 19.009321,0 17.9669527,0 L1.89662112,0 C0.854252727,0 0,0.868352768 0,1.92792618 L0,10.8756743 C0,11.9352477 0.854252727,12.8036005 1.89662112,12.8036005 L2.62048512,12.8036005 L2.62048512,15.5997717 L6.13865057,12.8036005 L7.3836458,12.8036005 L7.3836458,11.7880638 L7.39815697,11.7880638 Z M10.0331533,5.41576494 C9.54083254,5.41576494 9.13547294,5.82781528 9.13547294,6.32815444 L9.13547294,15.2759025 C9.13547294,15.7763494 9.54083254,16.1883997 10.0331533,16.1883997 L22.4116089,16.1883997 L24.3949793,17.7189186 L24.3949793,16.1883997 L26.1178901,16.1883997 C26.6101049,16.1883997 27.0154645,15.7763494 27.0154645,15.2759025 L27.0154645,6.34290513 C27.0154645,5.84256597 26.6101049,5.43051563 26.1178901,5.43051563 L10.0331533,5.43051563 L10.0331533,5.41576494 Z M25.3795149,20 L21.8614554,17.2038287 L10.0331533,17.2038287 C8.99067895,17.2038287 8.13653215,16.3355836 8.13653215,15.2759025 L8.13653215,6.34290513 C8.13653215,5.28333172 8.99067895,4.41497895 10.0331533,4.41497895 L26.1033789,4.41497895 C27.1457473,4.41497895 28,5.28333172 28,6.34290513 L28,15.2906532 C28,16.3502266 27.1457473,17.2185794 26.1033789,17.2185794 L25.3795149,17.2185794 L25.3795149,20 Z" id="Fill-1"></path>
        </g>
    </g>
</svg>