<?xml version="1.0" encoding="UTF-8"?>
<svg width="20px" height="20px" viewBox="0 0 20 20" version="1.1" xmlns="http://www.w3.org/2000/svg" xmlns:xlink="http://www.w3.org/1999/xlink">
    <!-- Generator: Sketch 52.5 (67469) - http://www.bohemiancoding.com/sketch -->
    <title>help</title>
    <desc>Created with Sketch.</desc>
    <g id="help" stroke="none" stroke-width="1" fill="none" fill-rule="evenodd">
        <g id="noun_help_1009845" fill="#FFFFFF" fill-rule="nonzero">
            <path d="M10,0 C4.4771525,-3.38176876e-16 6.76353751e-16,4.4771525 0,10 C-6.76353751e-16,15.5228475 4.4771525,20 10,20 C15.5228475,20 20,15.5228475 20,10 C20,7.3478351 18.9464316,4.80429597 17.0710678,2.92893219 C15.195704,1.0535684 12.6521649,1.62398263e-16 10,0 Z M10.756,13.976 C10.76,14.618 10.4,15 9.77,15 C9.14,15 8.72,14.632 8.718,14.094 C8.718,13.348 9.052,12.976 9.718,12.956 C10.26,12.94 10.824,13.272 10.756,13.976 Z M12.156,9.36 C11.872,9.58 11.574,9.78 11.288,9.996 C10.8662365,10.2723179 10.6238237,10.7525696 10.652,11.256 C10.6666204,11.6233368 10.4290073,11.9533551 10.076,12.056 C9.70036309,12.2005683 9.2744901,12.0731352 9.04,11.746 C8.96528707,11.6206297 8.9246116,11.4779209 8.922,11.332 C8.89268103,10.4143769 9.31862455,9.54152953 10.06,9 C10.3810181,8.7556782 10.6838188,8.48830451 10.966,8.2 C11.1005116,8.04153821 11.1823027,7.84509974 11.2,7.638 C11.246,7.072 10.882,6.708 10.296,6.67 C9.588,6.624 8.992,6.808 8.578,7.434 C8.40023343,7.73620463 8.05312301,7.89579562 7.708,7.834 C7.108,7.734 6.85,7.246 7.096,6.684 C7.35352234,6.13627782 7.79622707,5.69711473 8.346,5.444 C8.91069452,5.16645671 9.52896394,5.01496023 10.158,5 C10.5137794,5.03715955 10.8670589,5.09526033 11.216,5.174 C12.282,5.476 12.916,6.328 12.996,7.46 C13.0745098,8.19821179 12.7536211,8.92230726 12.154,9.36 L12.156,9.36 Z" id="Shape"></path>
        </g>
    </g>
</svg>