<?xml version="1.0" encoding="UTF-8"?>
<svg width="14px" height="12px" viewBox="0 0 14 12" version="1.1" xmlns="http://www.w3.org/2000/svg" xmlns:xlink="http://www.w3.org/1999/xlink">
    <!-- Generator: Sketch 52.5 (67469) - http://www.bohemiancoding.com/sketch -->
    <title>inventory</title>
    <desc>Created with Sketch.</desc>
    <g id="inventory" stroke="none" stroke-width="1" fill="none" fill-rule="evenodd">
        <g id="Group" fill="#5E5E5E">
            <path d="M4.73793103,0.103448276 L0.6,0.103448276 C0.351724138,0.103448276 0.165517241,0.310344828 0.165517241,0.537931034 L0.165517241,4.69655172 C0.165517241,4.94482759 0.372413793,5.13103448 0.6,5.13103448 L4.75862069,5.13103448 C5.00689655,5.13103448 5.19310345,4.92413793 5.19310345,4.69655172 L5.19310345,0.537931034 C5.19310345,0.289655172 4.9862069,0.103448276 4.73793103,0.103448276 Z M4.30344828,4.24137931 L1.03448276,4.24137931 L1.03448276,0.972413793 L4.30344828,0.972413793 L4.30344828,4.24137931 Z" id="Shape" fill-rule="nonzero"></path>
            <path d="M4.73793103,11.8965517 C4.9862069,11.8965517 5.17241379,11.6896552 5.17241379,11.462069 L5.17241379,7.30344828 C5.17241379,7.05517241 4.96551724,6.86896552 4.73793103,6.86896552 L0.6,6.86896552 C0.351724138,6.86896552 0.165517241,7.07586207 0.165517241,7.30344828 L0.165517241,11.462069 C0.165517241,11.7103448 0.372413793,11.8965517 0.6,11.8965517 L4.73793103,11.8965517 Z M1.03448276,7.75862069 L4.30344828,7.75862069 L4.30344828,11.0275862 L1.03448276,11.0275862 L1.03448276,7.75862069 Z" id="Shape" fill-rule="nonzero"></path>
            <path d="M6.35172414,1.42758621 C6.35172414,1.67586207 6.55862069,1.86206897 6.7862069,1.86206897 L12.6413793,1.86206897 C12.8896552,1.86206897 13.0758621,1.65517241 13.0758621,1.42758621 C13.0758621,1.2 12.8689655,0.993103448 12.6413793,0.993103448 L6.7862069,0.993103448 C6.53793103,0.972413793 6.35172414,1.17931034 6.35172414,1.42758621 Z" id="Path"></path>
            <path d="M12.6413793,3.35172414 L6.7862069,3.35172414 C6.53793103,3.35172414 6.35172414,3.55862069 6.35172414,3.7862069 C6.35172414,4.03448276 6.55862069,4.22068966 6.7862069,4.22068966 L12.6413793,4.22068966 C12.8896552,4.22068966 13.0758621,4.0137931 13.0758621,3.7862069 C13.0758621,3.55862069 12.8896552,3.35172414 12.6413793,3.35172414 Z" id="Path"></path>
            <path d="M12.6413793,7.75862069 L6.7862069,7.75862069 C6.53793103,7.75862069 6.35172414,7.96551724 6.35172414,8.19310345 C6.35172414,8.44137931 6.55862069,8.62758621 6.7862069,8.62758621 L12.6413793,8.62758621 C12.8896552,8.62758621 13.0758621,8.42068966 13.0758621,8.19310345 C13.0758621,7.94482759 12.8896552,7.75862069 12.6413793,7.75862069 Z" id="Path"></path>
            <path d="M13.0758621,10.5724138 C13.0758621,10.3241379 12.8689655,10.137931 12.6413793,10.137931 L6.7862069,10.137931 C6.53793103,10.137931 6.35172414,10.3448276 6.35172414,10.5724138 C6.35172414,10.8206897 6.55862069,11.0068966 6.7862069,11.0068966 L12.6413793,11.0068966 C12.8896552,11.0275862 13.0758621,10.8206897 13.0758621,10.5724138 Z" id="Path"></path>
        </g>
    </g>
</svg>