<?xml version="1.0" encoding="UTF-8"?>
<svg width="11px" height="18px" viewBox="0 0 11 18" version="1.1" xmlns="http://www.w3.org/2000/svg" xmlns:xlink="http://www.w3.org/1999/xlink">
    <!-- Generator: Sketch 52.5 (67469) - http://www.bohemiancoding.com/sketch -->
    <title>location</title>
    <desc>Created with Sketch.</desc>
    <g id="location" stroke="none" stroke-width="1" fill="none" fill-rule="evenodd">
        <g id="noun_Location_1570211" fill="#9A9A9A" fill-rule="nonzero">
            <g id="Group" transform="translate(0.000000, 0.637820)">
                <path d="M5.2086046,0.35644 C2.36834879,0.35644 0,2.5118908 0,5.5650446 C0,6.72494504 0.448624555,8.09083835 0.930107965,8.98900641 L4.71448475,16.0578269 C4.81091663,16.2414398 5.00120939,16.35644 5.2086046,16.35644 C5.41599981,16.35644 5.60629258,16.2414398 5.70272446,16.0578269 L9.48710124,8.98900641 C9.96859023,8.09081975 10.4172092,6.72492644 10.4172092,5.5650446 C10.4172092,2.5118908 8.04886227,0.35644 5.2086046,0.35644 Z M5.2086046,1.47256956 C7.50519557,1.47256956 9.30107965,3.07040203 9.30107965,5.5650446 C9.30107965,6.40461586 8.8848861,7.75074251 8.5046747,8.4600168 L5.2086046,14.6045518 L1.9125345,8.4600168 C1.53233241,7.75076112 1.11612956,6.40461586 1.11612956,5.5650446 C1.11612956,3.07040203 2.9120155,1.47256956 5.2086046,1.47256956 Z M5.2086046,2.9607423 C3.77689127,2.9607423 2.6043023,4.13334801 2.6043023,5.5650446 C2.6043023,6.99674119 3.77689685,8.16935806 5.2086046,8.16935806 C6.64031235,8.16935806 7.8129069,6.99674119 7.8129069,5.5650446 C7.8129069,4.13334801 6.64031793,2.9607423 5.2086046,2.9607423 Z M5.2086046,4.07687186 C6.03710199,4.07687186 6.69677735,4.73657884 6.69677735,5.5650446 C6.69677735,6.39354757 6.03710757,7.05321735 5.2086046,7.05321735 C4.38010163,7.05321735 3.72043186,6.39354757 3.72043186,5.5650446 C3.72043186,4.73657884 4.38010721,4.07687186 5.2086046,4.07687186 Z" id="Shape"></path>
            </g>
        </g>
    </g>
</svg>