<?xml version="1.0" encoding="UTF-8"?>
<svg width="15px" height="10px" viewBox="0 0 15 10" version="1.1" xmlns="http://www.w3.org/2000/svg" xmlns:xlink="http://www.w3.org/1999/xlink">
    <!-- Generator: Sketch 52.5 (67469) - http://www.bohemiancoding.com/sketch -->
    <title>loyalty</title>
    <desc>Created with Sketch.</desc>
    <g id="loyalty" stroke="none" stroke-width="1" fill="none" fill-rule="evenodd">
        <g id="Group" fill="#525252">
            <path d="M1.6445312,0.03516 C0.9162169,0.03516 0.32421876,0.63106 0.32421876,1.35938 L0.32421876,7.97266 C0.32421876,8.70098 0.91621088,9.29688 1.6445312,9.29688 L13.2890624,9.29688 C14.0173828,9.29688 14.609375,8.70098 14.609375,7.97266 L14.609375,1.35938 C14.609375,0.63106 14.0173768,0.03516 13.2890624,0.03516 L1.6445312,0.03516 Z M1.6445312,0.5664 L13.2890624,0.5664 C13.7333818,0.5664 14.0820312,0.91506 14.0820312,1.35938 L14.0820312,7.97266 C14.0820312,8.41698 13.7333758,8.76562 13.2890624,8.76562 L1.6445312,8.76562 C1.200218,8.76562 0.8515625,8.41698 0.8515625,7.97266 L0.8515625,1.35938 C0.8515625,0.91506 1.200212,0.5664 1.6445312,0.5664 Z" id="Shape" fill-rule="nonzero"></path>
            <polygon id="Path" points="9.0546876 3.73828 9.0546876 4.26954 14.3476562 4.26954 14.3476562 3.73828"></polygon>
            <path d="M2.9726562,2.10546 C2.855555,2.10285407 2.750674,2.17754462 2.7148438,2.28906 C2.354621,3.38492 2.3406834,4.50786 2.7148438,5.6289 C2.75738218,5.75989964 2.89329904,5.83636103 3.0273438,5.8047 C3.8115678,5.6211 4.4989156,5.28434 5.3515624,4.70706 L5.0546876,4.26956 C4.351335,4.74576 3.8083868,4.96364 3.21875,5.14064 C3.0102888,4.34488 3.0146654,3.56138 3.21875,2.77736 C3.8263776,2.95996 4.3837062,3.19738 5.0546876,3.64846 L5.3476562,3.21096 C4.5382914,2.66684 3.8460252,2.29866 3.0234376,2.1133 C3.00681004,2.10899144 2.98980247,2.10631213 2.9726556,2.1053 L2.9726562,2.10546 Z" id="Path"></path>
            <path d="M6.0117188,2.66796 C5.2842228,2.66796 4.6874954,3.2647 4.6875,3.99218 C4.6875092,4.71968 5.2842324,5.3164 6.0117188,5.3164 C6.7392052,5.3164 7.3359282,4.71968 7.3359376,3.99218 C7.335942,3.2647 6.7392148,2.66796 6.0117188,2.66796 Z M6.0117188,3.19922 C6.4532306,3.19922 6.8046902,3.55068 6.8046876,3.99218 C6.8046818,4.4337 6.4532246,4.78516 6.0117188,4.78516 C5.570213,4.78516 5.2187556,4.4337 5.21875,3.99218 C5.2187472,3.55068 5.570207,3.19922 6.0117188,3.19922 Z" id="Shape" fill-rule="nonzero"></path>
            <path d="M4.8203124,4.6211 L4.8203124,7.17968 C4.82115374,7.28668863 4.88636523,7.38265639 4.98554498,7.42284263 C5.08472472,7.46302888 5.19834583,7.4395216 5.2734376,7.36328 L6.0117188,6.61328 L6.75,7.36328 C6.82509179,7.43952146 6.93871281,7.46302864 7.03789246,7.42284242 C7.13707212,7.38265619 7.20228358,7.28668855 7.203125,7.17968 L7.203125,4.6211 L6.671875,4.6211 L6.671875,6.53124 L6.1992188,6.05078 C6.14956326,6.00091541 6.08209031,5.97288414 6.0117188,5.97288414 C5.94134729,5.97288414 5.87387434,6.00091541 5.8242188,6.05078 L5.3515624,6.53124 L5.3515624,4.6211 L4.8203124,4.6211 Z" id="Path"></path>
            <polygon id="Path" points="4.1601562 3.69532 4.1601562 4.22266 4.953125 4.22266 4.953125 3.69532"></polygon>
            <polygon id="Path" points="7.0703124 3.69532 7.0703124 4.22266 7.8632812 4.22266 7.8632812 3.69532"></polygon>
            <path d="M9.0429688,2.10546 C9.02845485,2.10687817 9.01408298,2.10949375 9,2.11328 C8.177412,2.29868 7.48124,2.66682 6.671875,3.21094 L6.96875,3.64844 C7.640728,3.19668 8.195989,2.95988 8.8046876,2.77734 C9.0087718,3.56136 9.0131484,4.34486 8.8046876,5.14062 C8.2150506,4.96362 7.6721026,4.74574 6.96875,4.26954 L6.671875,4.70704 C7.5245222,5.28432 8.21187,5.62114 8.9960938,5.80468 C9.13013856,5.83634103 9.26605542,5.75987964 9.3085938,5.62888 C9.6827534,4.50784 9.6688162,3.3849 9.3085938,2.28904 C9.27198194,2.17464826 9.16291773,2.09926307 9.0429688,2.10544 L9.0429688,2.10546 Z" id="Path"></path>
            <polygon id="Path" points="0.5859375 3.73828 0.5859375 4.26954 2.5703124 4.26954 2.5703124 3.73828"></polygon>
            <path d="M11.1484376,5.32812 C11.0101017,5.34456841 10.9082114,5.46545777 10.9154253,5.60458124 C10.9226393,5.74370471 11.0364863,5.85340752 11.1757816,5.85546 L12.4960942,5.85546 L12.4960942,6.91406 L11.1757816,6.91406 C11.0290782,6.91406 10.9101516,7.0329866 10.9101516,7.17969 C10.9101516,7.3263934 11.0290782,7.44532 11.1757816,7.44532 L12.7617192,7.44532 C12.8322527,7.44559115 12.8999754,7.41769075 12.9498491,7.36781426 C12.9997228,7.31793776 13.0276193,7.25021349 13.0273442,7.17968 L13.0273442,5.58984 C13.0257572,5.44443334 12.9071334,5.32755344 12.7617192,5.32812 L11.1757816,5.32812 C11.166673,5.32764874 11.1575462,5.32764874 11.1484376,5.32812 Z" id="Path"></path>
        </g>
    </g>
</svg>