<?xml version="1.0" encoding="UTF-8"?>
<svg width="12px" height="15px" viewBox="0 0 12 15" version="1.1" xmlns="http://www.w3.org/2000/svg" xmlns:xlink="http://www.w3.org/1999/xlink">
    <!-- Generator: Sketch 52.5 (67469) - http://www.bohemiancoding.com/sketch -->
    <title>menu</title>
    <desc>Created with Sketch.</desc>
    <g id="menu" stroke="none" stroke-width="1" fill="none" fill-rule="evenodd">
        <g id="Group" fill="#525252">
            <path d="M8.11856,4.24912 C7.91648,4.24912 7.71744,4.28624 7.528,4.352 C7.14976,3.90512 6.58576,3.62016 5.95568,3.62016 C5.32576,3.62016 4.76176,3.90496 4.3832,4.352 C4.19392,4.28656 3.99488,4.24912 3.79264,4.24912 C2.79904,4.24912 1.99072,5.05744 1.99072,6.05104 C1.99072,6.87488 2.5472,7.57008 3.30384,7.78416 L3.30384,9.77616 C3.30384,9.90384 3.37104,10.02144 3.48096,10.08624 C3.54496,10.12352 4.57056,10.712 6.01312,10.712 C6.75232,10.712 7.60176,10.5576 8.48672,10.09504 C8.60496,10.0328 8.67952,9.9104 8.67952,9.77632 L8.67952,7.76336 C9.40496,7.52464 9.92144,6.83648 9.92144,6.05088 C9.92128,5.05744 9.11248,4.24912 8.11856,4.24912 Z M8.6568,6.98848 C8.60992,6.84512 8.47888,6.73968 8.32,6.73968 C8.12128,6.73968 7.96016,6.90064 7.96016,7.09904 L7.96016,9.55296 C6.14864,10.40192 4.54704,9.80352 4.02272,9.5568 L4.02272,7.83664 C4.2856,7.80336 4.53792,7.71392 4.7616,7.57088 C4.92912,7.46416 4.97824,7.24176 4.87136,7.07424 C4.76464,6.90704 4.54224,6.85824 4.37472,6.96464 C4.20128,7.0752 4.00032,7.13376 3.79248,7.13376 C3.19536,7.13376 2.7096,6.64816 2.7096,6.05088 C2.7096,5.45408 3.1952,4.96816 3.79248,4.96816 C3.86784,4.96816 3.94208,4.97792 4.01488,4.99312 C3.9384,5.2088 3.89456,5.43984 3.89456,5.68112 C3.89456,5.87952 4.05552,6.04096 4.2544,6.04096 C4.4528,6.04096 4.61376,5.87968 4.61376,5.68112 C4.61376,4.94144 5.21584,4.33904 5.95568,4.33904 C6.69536,4.33904 7.29744,4.94144 7.29744,5.68112 C7.29744,6.08544 7.11792,6.464 6.80496,6.72 C6.6512,6.8456 6.62848,7.07232 6.7544,7.22608 C6.82528,7.31296 6.9288,7.35776 7.03296,7.35776 C7.1128,7.35776 7.19344,7.33136 7.26048,7.2768 C7.74128,6.88384 8.01696,6.3024 8.01696,5.68112 C8.01696,5.43984 7.97296,5.2088 7.89632,4.9936 C7.96912,4.97792 8.04368,4.96816 8.11888,4.96816 C8.716,4.96816 9.20224,5.45408 9.20224,6.05088 C9.20208,6.44656 8.98336,6.79952 8.6568,6.98848 Z" id="Shape" fill-rule="nonzero"></path>
            <path d="M0.38224,14.5544 L9.98352,14.5544 C10.61088,14.5544 11.0992,14.35824 11.4344,13.97136 C11.96144,13.36288 11.89456,12.49648 11.8752,12.32336 L11.8752,2.07664 C11.8752,1.87792 11.71408,1.7168 11.51536,1.7168 L4.4672,1.71648 L9.8912,0.75408 C10.08672,0.71968 10.21712,0.53264 10.18224,0.33712 C10.14768,0.14096 9.95888,0.01072 9.76528,0.04608 L0.3192,1.72192 C0.13968,1.75392 0.01312,1.9152 0.0232,2.096 C0.02256,2.10288 0.02256,2.10928 0.02256,2.11584 L0.02256,14.19472 C0.02256,14.39344 0.18352,14.5544 0.38224,14.5544 Z M0.7416,2.436 L11.156,2.436 L11.156,12.3456 C11.156,12.3624 11.15696,12.37968 11.15952,12.39648 C11.16016,12.40352 11.24736,13.08832 10.8904,13.50032 C10.69792,13.72224 10.39296,13.83504 9.98336,13.83504 L0.7416,13.83504 L0.7416,2.436 Z" id="Shape" fill-rule="nonzero"></path>
            <path d="M8.57632,11.88048 L3.33488,11.88048 C3.13648,11.88048 2.97536,12.0416 2.97536,12.24016 C2.97536,12.43856 3.13632,12.59968 3.33488,12.59968 L8.57632,12.59968 C8.77504,12.59968 8.936,12.43856 8.936,12.24016 C8.936,12.0416 8.77504,11.88048 8.57632,11.88048 Z" id="Path"></path>
        </g>
    </g>
</svg>