<?xml version="1.0" encoding="UTF-8"?>
<svg width="11px" height="12px" viewBox="0 0 11 12" version="1.1" xmlns="http://www.w3.org/2000/svg" xmlns:xlink="http://www.w3.org/1999/xlink">
    <!-- Generator: Sketch 52.5 (67469) - http://www.bohemiancoding.com/sketch -->
    <title>microsite</title>
    <desc>Created with Sketch.</desc>
    <g id="microsite" stroke="none" stroke-width="1" fill="none" fill-rule="evenodd">
        <g id="noun_website_1489810" fill="#525252">
            <g id="Group">
                <path d="M11,1.66956522 C11,0.805119522 10.3284271,0.104347826 9.5,0.104347826 L1.5,0.104347826 C0.671572875,0.104347826 2.22044605e-16,0.805119522 0,1.66956522 L0,10.3434783 C2.22044605e-16,11.207924 0.671572875,11.9086957 1.5,11.9086957 L9.5,11.9086957 C10.3284271,11.9086957 11,11.207924 11,10.3434783 L11,1.66956522 Z M1.5,0.626086957 L9.5,0.626086957 C10.0522847,0.626086957 10.5,1.09326809 10.5,1.66956522 L10.5,2.97391304 L0.5,2.97391304 L0.5,1.66956522 C0.5,1.09326809 0.94771525,0.626086957 1.5,0.626086957 Z M9.5,11.3869565 L1.5,11.3869565 C0.94771525,11.3869565 0.5,10.9197754 0.5,10.3434783 L0.5,3.49565217 L10.5,3.49565217 L10.5,10.3434783 C10.5,10.9197754 10.0522847,11.3869565 9.5,11.3869565 Z" id="Shape" fill-rule="nonzero"></path>
                <ellipse id="Oval" cx="3" cy="1.78695652" rx="1" ry="1"></ellipse>
                <ellipse id="Oval" cx="4.325" cy="1.78695652" rx="1" ry="1"></ellipse>
                <ellipse id="Oval" cx="1.675" cy="1.78695652" rx="1" ry="1"></ellipse>
                <path d="M9.2375,4.42173913 L1.7625,4.42173913 C1.62442881,4.42173913 1.5125,4.53853441 1.5125,4.6826087 L1.5125,6.83478261 C1.5125,6.97885689 1.62442881,7.09565217 1.7625,7.09565217 L9.2375,7.09565217 C9.37557119,7.09565217 9.4875,6.97885689 9.4875,6.83478261 L9.4875,4.6826087 C9.4875,4.53853441 9.37557119,4.42173913 9.2375,4.42173913 Z M8.9875,6.57391304 L2.0125,6.57391304 L2.0125,4.94347826 L8.9875,4.94347826 L8.9875,6.57391304 Z" id="Shape" fill-rule="nonzero"></path>
                <path d="M9.2375,7.87826087 L7.5125,7.87826087 C7.37442881,7.87826087 7.2625,7.99505615 7.2625,8.13913043 L7.2625,10.0956522 C7.2625,10.2397265 7.37442881,10.3565217 7.5125,10.3565217 L9.2375,10.3565217 C9.37557119,10.3565217 9.4875,10.2397265 9.4875,10.0956522 L9.4875,8.13913043 C9.4875,7.99505615 9.37557119,7.87826087 9.2375,7.87826087 Z M8.9875,9.83478261 L7.7625,9.83478261 L7.7625,8.4 L8.9875,8.4 L8.9875,9.83478261 Z" id="Shape" fill-rule="nonzero"></path>
                <path d="M3.4875,7.87826087 L1.7625,7.87826087 C1.62442881,7.87826087 1.5125,7.99505615 1.5125,8.13913043 L1.5125,10.0956522 C1.5125,10.2397265 1.62442881,10.3565217 1.7625,10.3565217 L3.4875,10.3565217 C3.62557119,10.3565217 3.7375,10.2397265 3.7375,10.0956522 L3.7375,8.13913043 C3.7375,7.99505615 3.62557119,7.87826087 3.4875,7.87826087 Z M3.2375,9.83478261 L2.0125,9.83478261 L2.0125,8.4 L3.2375,8.4 L3.2375,9.83478261 Z" id="Shape" fill-rule="nonzero"></path>
                <path d="M6.3625,7.87826087 L4.6375,7.87826087 C4.49942881,7.87826087 4.3875,7.99505615 4.3875,8.13913043 L4.3875,10.0956522 C4.3875,10.2397265 4.49942881,10.3565217 4.6375,10.3565217 L6.3625,10.3565217 C6.50057119,10.3565217 6.6125,10.2397265 6.6125,10.0956522 L6.6125,8.13913043 C6.6125,7.99505615 6.50057119,7.87826087 6.3625,7.87826087 Z M6.1125,9.83478261 L4.8875,9.83478261 L4.8875,8.4 L6.1125,8.4 L6.1125,9.83478261 Z" id="Shape" fill-rule="nonzero"></path>
            </g>
        </g>
    </g>
</svg>