<?xml version="1.0" encoding="UTF-8"?>
<svg width="18px" height="20px" viewBox="0 0 18 20" version="1.1" xmlns="http://www.w3.org/2000/svg" xmlns:xlink="http://www.w3.org/1999/xlink">
    <!-- Generator: Sketch 52.5 (67469) - http://www.bohemiancoding.com/sketch -->
    <title>notification</title>
    <desc>Created with Sketch.</desc>
    <g id="notification" stroke="none" stroke-width="1" fill="none" fill-rule="evenodd">
        <g id="alarm" fill="#FFFFFF" fill-rule="nonzero">
            <path d="M8.08791209,19.7142857 C7.36263736,19.4945055 6.9010989,18.7912088 6.9010989,18.043956 L6.9010989,17.4725275 C6.9010989,17.4725275 6.9010989,17.4505495 6.92307692,17.4505495 L10.3956044,17.4505495 L10.3956044,18.0659341 C10.3736264,19.2087912 9.27472527,20.0879121 8.08791209,19.7142857 Z" id="Shape"></path>
            <path d="M16.021978,17.0549451 L1.25274725,17.0549451 C0.615384615,17.0549451 0.10989011,16.5494505 0.10989011,15.9120879 L0.10989011,15.7142857 C0.10989011,15.4065934 0.21978022,15.1208791 0.43956044,14.9010989 L1.97802198,13.4065934 L1.97802198,8.54945055 C1.97802198,5.6043956 3.82417582,3.12087912 6.59340659,2.24175824 C6.61538462,2.24175824 6.61538462,2.21978022 6.61538462,2.1978022 L6.61538462,2.02197802 C6.61538462,1.36263736 6.92307692,0.725274725 7.47252747,0.373626374 C8.96703297,-0.593406593 10.6153846,0.571428571 10.6153846,2.02197802 L10.6153846,2.1978022 C13.4065934,3.07692308 15.2747253,5.56043956 15.2747253,8.52747253 L15.2747253,13.4065934 L16.8131868,14.9230769 C17.032967,15.1428571 17.1428571,15.4285714 17.1428571,15.7362637 L17.1428571,15.9340659 C17.1648352,16.5494505 16.6593407,17.0549451 16.021978,17.0549451 Z" id="Shape"></path>
        </g>
    </g>
</svg>