<?xml version="1.0" encoding="UTF-8"?>
<svg width="13px" height="13px" viewBox="0 0 13 13" version="1.1" xmlns="http://www.w3.org/2000/svg" xmlns:xlink="http://www.w3.org/1999/xlink">
    <!-- Generator: Sketch 52.5 (67469) - http://www.bohemiancoding.com/sketch -->
    <title>offers</title>
    <desc>Created with Sketch.</desc>
    <g id="offers" stroke="none" stroke-width="1" fill="none" fill-rule="evenodd">
        <path d="M13,6.50006829 C13,5.54867889 12.3979787,4.72471503 11.5368752,4.41373116 C11.9259765,3.58498713 11.7689156,2.57664548 11.0961486,1.90387141 C10.6774105,1.48512896 10.1204589,1.25445186 9.52827096,1.25445186 C9.20199399,1.25445186 8.87967768,1.32724694 8.58658836,1.46423281 C8.27601748,0.602437359 7.45178913,0 6.5,0 C5.54821087,0 4.72398252,0.602437359 4.41341164,1.46409623 C4.12032232,1.32724694 3.79800601,1.25431528 3.47172904,1.25431528 C2.87940453,1.25431528 2.32258946,1.48499238 1.90385141,1.90373483 C1.2310844,2.5765089 1.07416007,3.58485055 1.46312483,4.41359458 C0.602021306,4.72471503 0,5.54867889 0,6.50006829 C0,7.45145769 0.602021306,8.27542155 1.46312483,8.58640542 C1.07402349,9.41514945 1.2310844,10.4234911 1.90385141,11.0962652 C2.32258946,11.5150076 2.87954111,11.7456847 3.47172904,11.7456847 C3.79800601,11.7456847 4.12032232,11.6728896 4.41341164,11.5359038 C4.72398252,12.3975626 5.54834745,13 6.5,13 C7.45165255,13 8.27601748,12.3975626 8.58658836,11.5359038 C8.87967768,11.6727531 9.20199399,11.7455481 9.52827096,11.7456847 C9.52840754,11.7456847 9.52840754,11.7456847 9.52840754,11.7456847 C10.1205955,11.7456847 10.6774105,11.5150076 11.0961486,11.0962652 C11.7689156,10.4234911 11.9258399,9.41514945 11.5368752,8.58640542 C12.3979787,8.27542155 13,7.45145769 13,6.50006829 Z M10.9605299,8.0249409 C10.8376127,8.0392814 10.7320404,8.11904187 10.684649,8.23349267 C10.6372576,8.34794348 10.655422,8.47892 10.7323136,8.57602563 C11.2153783,9.18665756 11.1642994,10.0625204 10.613357,10.6133319 C10.3234089,10.9031465 9.93826823,11.062804 9.52840754,11.062804 C9.52840754,11.062804 9.52840754,11.062804 9.52827096,11.062804 C9.18341983,11.062804 8.84512428,10.9454851 8.57579896,10.7324263 C8.47869435,10.6556705 8.3477192,10.6375059 8.2332696,10.6847613 C8.11895657,10.7321532 8.03919694,10.8377265 8.0248566,10.9606451 C7.93471729,11.7339392 7.2791587,12.3171193 6.5,12.3171193 C5.7208413,12.3171193 5.06528271,11.7339392 4.9751434,10.9606451 C4.96080306,10.8377265 4.88104343,10.7321532 4.7667304,10.6847613 C4.72452882,10.6672795 4.68014204,10.6588118 4.63602841,10.6588118 C4.56036602,10.6588118 4.48552308,10.6839418 4.42420104,10.7324263 C4.15487572,10.9454851 3.81671674,11.062804 3.47172904,11.062804 C3.06186834,11.062804 2.67645452,10.9031465 2.38664299,10.6133319 C1.83570063,10.0623838 1.78462169,9.18652099 2.26768642,8.57588906 C2.34457798,8.47878342 2.36260585,8.3478069 2.315351,8.2333561 C2.26809615,8.11890529 2.1625239,8.0392814 2.03947009,8.02480433 C1.26604753,7.93466408 0.682873532,7.2790986 0.682873532,6.49993171 C0.682873532,5.72076483 1.26604753,5.06519935 2.03947009,4.9750591 C2.16238733,4.9607186 2.26795957,4.88095813 2.315351,4.76650733 C2.36274242,4.65205652 2.34457798,4.52108 2.26768642,4.42397437 C1.78462169,3.81334244 1.83570063,2.93747964 2.38664299,2.38666807 C2.67645452,2.0968535 3.06186834,1.93719599 3.47172904,1.93719599 C3.81658017,1.93719599 4.15487572,2.05451489 4.42420104,2.26757367 C4.52130565,2.34446604 4.65241737,2.36263067 4.7667304,2.31523875 C4.88104343,2.26784682 4.96080306,2.16227347 4.9751434,2.03935494 C5.06528271,1.26606083 5.7208413,0.682880706 6.5,0.682880706 C7.2791587,0.682880706 7.93471729,1.26606083 8.0248566,2.03935494 C8.03919694,2.16227347 8.11895657,2.26784682 8.2332696,2.31523875 C8.34744605,2.36263067 8.47869435,2.34432946 8.57579896,2.26757367 C8.84512428,2.05451489 9.18328326,1.93719599 9.52827096,1.93719599 C9.93813166,1.93719599 10.3235455,2.0968535 10.613357,2.38666807 C11.1642994,2.93761622 11.2153783,3.81347901 10.7323136,4.42411094 C10.655422,4.52121658 10.6373942,4.6521931 10.684649,4.7666439 C10.7319039,4.88109471 10.8374761,4.9607186 10.9605299,4.97519567 C11.7339525,5.06533592 12.3171265,5.7209014 12.3171265,6.50006829 C12.3171265,7.27923517 11.7339525,7.93480065 10.9605299,8.0249409 Z M8.66061185,4.39925408 L3.92187927,8.0604507 C3.77260311,8.17572096 3.7451516,8.39028208 3.86042065,8.53942323 C3.92775198,8.62655881 4.02868069,8.67217524 4.13083857,8.67217524 C4.20363289,8.67217524 4.27711008,8.64895729 4.33925157,8.60101907 L9.07798416,4.93968587 C9.22726031,4.82441561 9.25471183,4.60985449 9.13944278,4.46071335 C9.0243103,4.31170878 8.81002458,4.28384724 8.66061185,4.39925408 Z M5.49481016,5.72431581 C5.81412182,5.72431581 6.11417645,5.59989494 6.33993444,5.37427116 C6.80592734,4.90827336 6.80592734,4.1501392 6.33993444,3.68427798 C6.11431303,3.45851762 5.81412182,3.33423334 5.49494674,3.33423334 C5.17577165,3.33423334 4.87558044,3.45851762 4.64982245,3.68427798 C4.18382955,4.15027578 4.18382955,4.90827336 4.64982245,5.37427116 C4.87544387,5.59989494 5.17563507,5.72431581 5.49481016,5.72431581 Z M5.13261404,4.16707464 C5.22944551,4.07037874 5.35796231,4.01697746 5.49481016,4.01697746 C5.63152144,4.01697746 5.76017482,4.07024216 5.85686971,4.16707464 C6.05654193,4.36661239 6.05654193,4.6916636 5.85686971,4.89133792 C5.66334335,5.08472974 5.32627697,5.08500289 5.13247747,4.89133792 C4.93294182,4.6916636 4.93294182,4.36674896 5.13261404,4.16707464 Z M7.50518984,7.27582077 C7.18601475,7.27582077 6.88582355,7.40024163 6.66006556,7.62586542 C6.19407266,8.09186321 6.19407266,8.84999737 6.66006556,9.31585859 C6.88568697,9.54161895 7.18587818,9.66590324 7.50518984,9.66590324 C7.82436493,9.66590324 8.12441956,9.54161895 8.35017755,9.31585859 C8.81603387,8.8498608 8.81603387,8.09172664 8.35017755,7.62586542 C8.12455613,7.40024163 7.82436493,7.27582077 7.50518984,7.27582077 Z M7.86738596,8.83319851 C7.6738596,9.0267269 7.3363835,9.02659032 7.14299372,8.83319851 C6.9433215,8.63366077 6.9433215,8.30860955 7.14299372,8.10893523 C7.23982518,8.01223932 7.36834198,7.95883805 7.50518984,7.95883805 C7.64190112,7.95883805 7.77041792,8.01210275 7.86724939,8.10893523 C8.06705818,8.30847297 8.06705818,8.63338761 7.86738596,8.83319851 Z" id="Shape" fill="#525252" fill-rule="nonzero"></path>
    </g>
</svg>