<?xml version="1.0" encoding="UTF-8"?>
<svg width="28px" height="28px" viewBox="0 0 28 28" version="1.1" xmlns="http://www.w3.org/2000/svg" xmlns:xlink="http://www.w3.org/1999/xlink">
    <!-- Generator: Sketch 52.5 (67469) - http://www.bohemiancoding.com/sketch -->
    <title>profile</title>
    <desc>Created with Sketch.</desc>
    <g id="profile" stroke="none" stroke-width="1" fill="none" fill-rule="evenodd">
        <path d="M14,0 C6.28,0 0,6.28 0,14 C0,21.72 6.28,28 14,28 C21.72,28 28,21.72 28,14 C28,6.28 21.72,0 14,0 Z M13.5,6 C15.9652174,6 18,8.25 18,11 C18,13.75 15.9652174,16 13.5,16 C11.0347826,16 9,13.75 9,11 C9,8.25 11.0347826,6 13.5,6 Z M13.5,26 C10.3125,26 7.28240741,24.8190476 5,22.647619 C7.32175926,19.6380952 10.3518519,18 13.5,18 C16.6481481,18 19.6782407,19.6380952 22,22.647619 C19.7175926,24.8190476 16.6875,26 13.5,26 Z" id="Shape" fill="#EBD9D9" fill-rule="nonzero"></path>
    </g>
</svg>