<?xml version="1.0" encoding="UTF-8"?>
<svg width="14px" height="12px" viewBox="0 0 14 12" version="1.1" xmlns="http://www.w3.org/2000/svg" xmlns:xlink="http://www.w3.org/1999/xlink">
    <!-- Generator: Sketch 52.5 (67469) - http://www.bohemiancoding.com/sketch -->
    <title>sales</title>
    <desc>Created with Sketch.</desc>
    <g id="sales" stroke="none" stroke-width="1" fill="none" fill-rule="evenodd">
        <g id="noun_sales_1381327" fill="#525252">
            <path d="M12.833275,4.95864706 C12.2864,4.95864706 11.773125,5.17341176 11.3869,5.56464706 C11.197725,5.75664706 11.0502,5.97952941 10.94765,6.22994118 L9.303525,10.2315882 L8.343125,7.89423529 C8.698025,7.57147059 8.92535,7.10894118 8.92535,6.58905882 C8.92535,5.61370588 8.141875,4.82364706 7.17535,4.82364706 C7.14455,4.82364706 7.116025,4.83176471 7.08575,4.833 L6.15335,2.56270588 C6.0501,2.31352941 5.901525,2.08941176 5.712875,1.89917647 C4.9427,1.12023529 3.59765,1.11741176 2.822925,1.89917647 C2.6327,2.09117647 2.484475,2.31564706 2.381925,2.565 L0.97125,6 L0,6 L0,7.17652941 L1.166725,7.17652941 C1.408225,7.17652941 1.626975,7.07876471 1.78535,6.918 C1.865675,6.837 1.9299,6.73976471 1.97435,6.63194118 L3.4601,3.01517647 C3.50455,2.90841176 3.568775,2.81064706 3.6491,2.72911765 C3.80765,2.56941176 4.0264,2.47058824 4.2679,2.47058824 L4.269125,2.47058824 C4.5101,2.47058824 4.72885,2.56941176 4.886525,2.72911765 C4.96755,2.81064706 5.032475,2.90841176 5.076925,3.01517647 L6.007575,5.28264706 C5.65285,5.60541176 5.425525,6.06847059 5.425525,6.58888235 C5.425525,7.56317647 6.20935,8.35288235 7.175525,8.35288235 C7.206325,8.35288235 7.235375,8.34547059 7.265475,8.34370588 L8.495375,11.3377059 C8.539825,11.4451765 8.60475,11.5422353 8.6856,11.6237647 C8.84345,11.7834706 9.0622,11.8822941 9.303175,11.8822941 L9.304225,11.8822941 C9.5459,11.8822941 9.76395,11.7834706 9.922325,11.6237647 C10.003175,11.5422353 10.067575,11.4451765 10.112025,11.3377059 L12.02565,6.67958824 C12.0701,6.57176471 12.134325,6.47523529 12.21465,6.39352941 C12.373025,6.23329412 12.591775,6.135 12.833275,6.135 L14,6.135 L14,4.95864706 L12.833275,4.95864706 Z M7.175525,7.17652941 C6.853,7.17652941 6.592075,6.91341176 6.592075,6.58817647 C6.592075,6.26311765 6.853,6 7.175525,6 C7.497875,6 7.7588,6.26311765 7.7588,6.58817647 C7.7588,6.91341176 7.497875,7.17652941 7.175525,7.17652941 Z" id="Shape" fill-rule="nonzero"></path>
            <rect id="Rectangle" x="10.5" y="0.117705882" width="2.333275" height="1.17635294"></rect>
            <rect id="Rectangle" x="8.166725" y="2.47058824" width="4.66655" height="1.17652941"></rect>
            <rect id="Rectangle" x="1.166725" y="10.7059412" width="3.5" height="1.17635294"></rect>
            <rect id="Rectangle" x="1.166725" y="8.35288235" width="1.16655" height="1.17652941"></rect>
        </g>
    </g>
</svg>