<?xml version="1.0" encoding="UTF-8"?>
<svg width="11px" height="12px" viewBox="0 0 11 12" version="1.1" xmlns="http://www.w3.org/2000/svg" xmlns:xlink="http://www.w3.org/1999/xlink">
    <!-- Generator: Sketch 52.5 (67469) - http://www.bohemiancoding.com/sketch -->
    <title>settings</title>
    <desc>Created with Sketch.</desc>
    <g id="settings" stroke="none" stroke-width="1" fill="none" fill-rule="evenodd">
        <g id="noun_Settings_1165531" fill="#525252">
            <path d="M1.69230769,7.23076923 C1.69230769,7.48566988 1.8989455,7.69230769 2.15384615,7.69230769 L4.61538462,7.69230769 C4.87028527,7.69230769 5.07692308,7.48566988 5.07692308,7.23076923 L5.07692308,4.76923077 C5.07692308,4.51433012 4.87028527,4.30769231 4.61538462,4.30769231 L2.15384615,4.30769231 C1.8989455,4.30769231 1.69230769,4.51433012 1.69230769,4.76923077 L1.69230769,5.53846154 L0,5.53846154 L0,6.46153846 L1.69230769,6.46153846 L1.69230769,7.23076923 Z M2.61538462,5.23076923 L4.15384615,5.23076923 L4.15384615,6.76923077 L2.61538462,6.76923077 L2.61538462,5.23076923 Z" id="Shape" fill-rule="nonzero"></path>
            <rect id="Rectangle" x="5.23076923" y="5.53846154" width="5.53846154" height="1"></rect>
            <path d="M5.23076923,2.92307692 C5.23076923,3.17797758 5.43740704,3.38461538 5.69230769,3.38461538 L8.15384615,3.38461538 C8.40874681,3.38461538 8.61538462,3.17797758 8.61538462,2.92307692 L8.61538462,0.461538462 C8.61538462,0.206637808 8.40874681,-1.77635684e-15 8.15384615,-1.77635684e-15 L5.69230769,-1.77635684e-15 C5.43740704,-1.77635684e-15 5.23076923,0.206637808 5.23076923,0.461538462 L5.23076923,1.23076923 L0,1.23076923 L0,2.15384615 L5.23076923,2.15384615 L5.23076923,2.92307692 Z M6.15384615,0.923076923 L7.69230769,0.923076923 L7.69230769,2.46153846 L6.15384615,2.46153846 L6.15384615,0.923076923 Z" id="Shape" fill-rule="nonzero"></path>
            <rect id="Rectangle" x="8.76923077" y="1.23076923" width="2" height="1"></rect>
            <path d="M5.23076923,11.5384615 C5.23076923,11.7933622 5.43740704,12 5.69230769,12 L8.15384615,12 C8.40874681,12 8.61538462,11.7933622 8.61538462,11.5384615 L8.61538462,9.07692308 C8.61538462,8.82202242 8.40874681,8.61538462 8.15384615,8.61538462 L5.69230769,8.61538462 C5.43740704,8.61538462 5.23076923,8.82202242 5.23076923,9.07692308 L5.23076923,9.84615385 L0,9.84615385 L0,10.7692308 L5.23076923,10.7692308 L5.23076923,11.5384615 Z M6.15384615,9.53846154 L7.69230769,9.53846154 L7.69230769,11.0769231 L6.15384615,11.0769231 L6.15384615,9.53846154 Z" id="Shape" fill-rule="nonzero"></path>
            <rect id="Rectangle" x="8.76923077" y="9.84615385" width="2" height="1"></rect>
        </g>
    </g>
</svg>