<?xml version="1.0" encoding="UTF-8"?>
<svg width="33px" height="20px" viewBox="0 0 33 20" version="1.1" xmlns="http://www.w3.org/2000/svg" xmlns:xlink="http://www.w3.org/1999/xlink">
    <!-- Generator: Sketch 52.5 (67469) - http://www.bohemiancoding.com/sketch -->
    <title>table</title>
    <desc>Created with Sketch.</desc>
    <g id="table" stroke="none" stroke-width="1" fill="none" fill-rule="evenodd">
        <g id="noun_Cafeteria_1360018-Copy-5" fill="#9E9E9E" fill-rule="nonzero">
            <path d="M2.3862069,11.0758621 L2.3862069,18.9137931 C2.38620691,19.4851221 2.84936061,19.9482758 3.42068966,19.9482758 C3.9920187,19.9482758 4.4551724,19.4851221 4.45517241,18.9137931 L4.45517241,12.0172414 L11.237931,12.0172414 L11.237931,18.9137931 C11.237931,19.4851222 11.7010847,19.9482759 12.2724138,19.9482759 C12.8437428,19.9482759 13.3068966,19.4851222 13.3068966,18.9137931 L13.3068966,10.9827586 C13.3068966,10.4114296 12.8437428,9.94827586 12.2724138,9.94827586 L4.26206897,9.94827586 L2.36896552,0.875862069 C2.30633205,0.501861668 2.04408906,0.192106322 1.68554804,0.0686251907 C1.32700702,-0.0548559404 0.929641756,0.0277310482 0.649995628,0.283850734 C0.370349499,0.53997042 0.253249507,0.928567069 0.344827586,1.29655172 L2.3862069,11.0758621 Z" id="Shape"></path>
            <path d="M31.9310345,0.0689655172 C31.3693492,-0.0314128014 30.8324486,0.341949091 30.7310345,0.903448276 L29.1137931,9.93793103 L21.1241379,9.93793103 C20.5528089,9.93793103 20.0896552,10.4010847 20.0896552,10.9724138 L20.0896552,18.9034483 C20.0896552,19.4747773 20.5528089,19.937931 21.1241379,19.937931 C21.695467,19.937931 22.1586207,19.4747773 22.1586207,18.9034483 L22.1586207,12.0068966 L28.9448276,12.0068966 L28.9448276,18.9034483 C28.9448276,19.4747773 29.4079813,19.937931 29.9793103,19.937931 C30.5506394,19.937931 31.0137931,19.4747773 31.0137931,18.9034483 L31.0137931,11.062069 L32.7586207,1.26896552 C32.8592937,0.709529169 32.4897315,0.173663899 31.9310345,0.0689655172 Z" id="Shape"></path>
            <path d="M23.4482759,5.95517241 C24.0196049,5.95517241 24.4827586,5.49201871 24.4827586,4.92068966 C24.4827586,4.3493606 24.0196049,3.8862069 23.4482759,3.8862069 L9.94827586,3.8862069 C9.37694681,3.8862069 8.9137931,4.3493606 8.9137931,4.92068966 C8.9137931,5.49201871 9.37694681,5.95517241 9.94827586,5.95517241 L15.6655172,5.95517241 L15.6655172,18.9137931 C15.6655172,19.4851222 16.1286709,19.9482759 16.7,19.9482759 C17.2713291,19.9482759 17.7344828,19.4851222 17.7344828,18.9137931 L17.7344828,5.95517241 L23.4482759,5.95517241 Z" id="Shape"></path>
        </g>
    </g>
</svg>