<?xml version="1.0" encoding="UTF-8"?>
<svg width="19px" height="19px" viewBox="0 0 19 19" version="1.1" xmlns="http://www.w3.org/2000/svg" xmlns:xlink="http://www.w3.org/1999/xlink">
    <!-- Generator: Sketch 52.5 (67469) - http://www.bohemiancoding.com/sketch -->
    <title>timeline</title>
    <desc>Created with Sketch.</desc>
    <g id="timeline" stroke="none" stroke-width="1" fill="none" fill-rule="evenodd">
        <g id="Group-Copy-13" fill="#9E9E9E" fill-rule="nonzero">
            <g id="Group">
                <path d="M15.1580623,4.12873393 L14.3933815,4.7703775 C13.8207866,5.25084204 13.9568029,5.72629464 14.6990338,5.830777 L17.2082131,6.18399039 C17.5785896,6.23612775 17.8856201,5.97650971 17.8985184,5.60475571 L17.986386,3.07236107 C18.0124289,2.321781 17.5685963,2.10605568 16.9951722,2.58721575 L16.1784416,3.27253421 C12.9263718,-0.603131929 7.14820036,-1.10865679 3.27253421,2.14341307 C-0.603131929,5.39548361 -1.10865679,11.173655 2.14341307,15.0493212 C5.39548361,18.9249873 11.173655,19.4305122 15.0493212,16.1784416 C16.3986516,15.0462188 17.3811206,13.5704609 17.9024765,11.9037904 C18.0122898,11.552741 17.8167282,11.1791379 17.4656788,11.0693247 C17.1146286,10.9595115 16.7410255,11.155073 16.6312123,11.5061231 C16.1857566,12.9301555 15.3471408,14.1897252 14.1931215,15.1580623 C10.8809953,17.9372662 5.94299643,17.5052476 3.16379246,14.1931215 C0.3845885,10.8809953 0.816607786,5.94299643 4.12873393,3.16379246 C7.44086007,0.3845885 12.378859,0.816607786 15.1580623,4.12873393 Z M5.12820043,6.69857486 L4.65287336,7.17390193 C4.51913236,7.30764293 4.51994732,7.52529404 4.65525582,7.66060254 L8.96439746,11.9697442 C9.09945421,12.1048009 9.3196805,12.1035442 9.44905896,11.9741651 L12.8073979,8.61582618 C12.9400131,8.48321161 12.9448194,8.27300714 12.8053594,8.13354714 L12.3300324,7.65822007 C12.196292,7.52447907 11.9785317,7.52540329 11.852278,7.65165625 L9.208939,10.294996 L5.61047946,6.69653643 C5.47786489,6.56392186 5.26766043,6.55911486 5.12820043,6.69857486 Z" id="Shape"></path>
            </g>
        </g>
    </g>
</svg>