<?xml version="1.0" encoding="UTF-8"?>
<svg width="18px" height="10px" viewBox="0 0 18 10" version="1.1" xmlns="http://www.w3.org/2000/svg" xmlns:xlink="http://www.w3.org/1999/xlink">
    <!-- Generator: Sketch 52.5 (67469) - http://www.bohemiancoding.com/sketch -->
    <title>valet</title>
    <desc>Created with Sketch.</desc>
    <g id="valet" stroke="none" stroke-width="1" fill="none" fill-rule="evenodd">
        <g id="noun_Car_869255" fill="#525252">
            <path d="M4.04093706,8.79961538 C3.58797902,8.79961538 3.21885315,8.42442308 3.21885315,7.96269231 C3.21885315,7.50076923 3.58797902,7.125 4.04093706,7.125 C4.4938951,7.125 4.86302098,7.50076923 4.86302098,7.96269231 C4.86302098,8.42442308 4.49408392,8.79961538 4.04093706,8.79961538 Z M4.04093706,7.70980769 C3.90404895,7.70980769 3.79302797,7.82346154 3.79302797,7.96269231 C3.79302797,8.10173077 3.90404895,8.21480769 4.04093706,8.21480769 C4.17782517,8.21480769 4.28884615,8.10173077 4.28884615,7.96269231 C4.28884615,7.82346154 4.17782517,7.70980769 4.04093706,7.70980769 Z" id="Shape" fill-rule="nonzero"></path>
            <path d="M4.0415035,9.96057692 C2.95923776,9.96057692 2.07881119,9.06403846 2.07881119,7.96230769 C2.07881119,6.86057692 2.95923776,5.96365385 4.0415035,5.96365385 C5.1232028,5.96365385 6.00306294,6.86038462 6.00306294,7.96230769 C6.00306294,9.06403846 5.1232028,9.96057692 4.0415035,9.96057692 Z M4.0415035,6.54865385 C3.27606294,6.54865385 2.65298601,7.18269231 2.65298601,7.9625 C2.65298601,8.74192308 3.27606294,9.37596154 4.0415035,9.37596154 C4.80637762,9.37596154 5.4286993,8.74192308 5.4286993,7.9625 C5.4286993,7.18269231 4.80637762,6.54865385 4.0415035,6.54865385 Z" id="Shape" fill-rule="nonzero"></path>
            <path d="M12.8200909,8.79961538 C12.3671329,8.79961538 11.9987622,8.42442308 11.9987622,7.96269231 C11.9987622,7.50076923 12.3669441,7.125 12.8200909,7.125 C13.2741818,7.125 13.6431189,7.50076923 13.6431189,7.96269231 C13.6433077,8.42442308 13.2743706,8.79961538 12.8200909,8.79961538 Z M12.8200909,7.70980769 C12.6843357,7.70980769 12.5733147,7.82346154 12.5733147,7.96269231 C12.5733147,8.10173077 12.6843357,8.21480769 12.8200909,8.21480769 C12.956979,8.21480769 13.0689441,8.10173077 13.0689441,7.96269231 C13.0691329,7.82346154 12.956979,7.70980769 12.8200909,7.70980769 Z" id="Shape" fill-rule="nonzero"></path>
            <path d="M17.3789371,7.085 L16.8047622,7.085 L16.8047622,5.10365385 C16.8058951,5.08096154 16.807028,4.69538462 16.4896364,4.36807692 C16.1811189,4.05 15.6752937,3.88826923 14.9857552,3.88826923 L12.6452517,3.88826923 L11.1073846,1.36403846 C11.0894476,1.33596154 10.6274266,0.624423077 9.57386014,0.624423077 L5.05088811,0.624423077 C4.98367133,0.625576923 3.3378042,0.693461538 2.77533566,3.76153846 L2.73172028,4.00019231 L1.76613986,4.00019231 C1.67418881,4.00192308 0.842097902,4.05442308 0.842097902,5.32288462 L0.842097902,7.08480769 L0.267734266,7.08480769 L0.267734266,5.32307692 C0.267734266,3.43730769 1.75084615,3.41557692 1.76595105,3.41557692 L2.2578042,3.41557692 C2.96037063,0.0784615385 4.96384615,0.0396153846 5.0506993,0.0396153846 L9.57367133,0.0396153846 C10.9552028,0.0396153846 11.5692168,1.01326923 11.5945175,1.055 L12.9647203,3.30346154 L14.9855664,3.30346154 C15.8423916,3.30346154 16.4894476,3.52730769 16.9099301,3.96942308 C17.3932867,4.47769231 17.3796923,5.08711538 17.3785594,5.11269231 L17.3785594,7.085 L17.3789371,7.085 Z" id="Path"></path>
            <path d="M17.3789371,6.41115385 L16.4267622,6.41115385 C15.9345315,6.41115385 15.5340629,6.00269231 15.5340629,5.50134615 C15.5340629,5 15.9343427,4.59211538 16.4267622,4.59211538 L17.3049231,4.59211538 L17.3496713,4.82865385 C17.3798811,4.98288462 17.3798811,5.08961538 17.3787483,5.10961538 L17.3787483,6.41115385 L17.3789371,6.41115385 Z M16.4267622,5.17692308 C16.2519231,5.17692308 16.1082378,5.32269231 16.1082378,5.50134615 C16.1082378,5.68076923 16.2519231,5.82634615 16.4267622,5.82634615 L16.8047622,5.82634615 L16.8047622,5.17692308 L16.4267622,5.17692308 Z" id="Shape" fill-rule="nonzero"></path>
            <polygon id="Path" points="2.49608392 4.00038462 2.49060839 3.41557692 12.8023427 3.30365385 12.8078182 3.88846154"></polygon>
            <rect id="Rectangle" x="6.70223077" y="0.332115385" width="1" height="3.31826923"></rect>
            <path d="M2.36825874,8.27576923 L0.822839161,8.27576923 C0.412363636,8.27576923 0.0787342657,7.93519231 0.0787342657,7.51673077 C0.0787342657,7.09865385 0.412363636,6.75903846 0.822839161,6.75903846 L3.15276923,6.75903846 L2.87181818,7.20846154 C2.72888811,7.43730769 2.65298601,7.69788462 2.65298601,7.9625 L2.65298601,8.25480769 L2.36825874,8.27576923 Z M0.822839161,7.34384615 C0.729188811,7.34384615 0.652909091,7.42153846 0.652909091,7.51673077 C0.652909091,7.61269231 0.729188811,7.69096154 0.822839161,7.69096154 L2.10297902,7.69096154 C2.11865035,7.56980769 2.14451748,7.45461538 2.17925874,7.34365385 L0.822839161,7.34365385 L0.822839161,7.34384615 Z" id="Shape" fill-rule="nonzero"></path>
            <path d="M12.8212238,9.96057692 C11.7393357,9.96057692 10.8589091,9.06403846 10.8589091,7.96230769 C10.8589091,6.86057692 11.7391469,5.96365385 12.8212238,5.96365385 C13.9023566,5.96365385 14.7827832,6.86038462 14.7827832,7.96230769 C14.7827832,9.06403846 13.9023566,9.96057692 12.8212238,9.96057692 Z M12.8212238,6.54865385 C12.0554056,6.54865385 11.4330839,7.18269231 11.4330839,7.9625 C11.4330839,8.74192308 12.0554056,9.37596154 12.8212238,9.37596154 C13.5860979,9.37596154 14.2086084,8.74192308 14.2086084,7.9625 C14.2086084,7.18269231 13.5860979,6.54865385 12.8212238,6.54865385 Z" id="Shape" fill-rule="nonzero"></path>
            <g id="Group" transform="translate(4.909091, 6.730769)" fill-rule="nonzero">
                <path d="M6.54778322,1.54615385 L0.494496503,1.545 L0.518097902,1.23019231 C0.519797203,0.9675 0.444083916,0.706346154 0.30172028,0.476923077 L0.0219020979,0.0280769231 L7.02377622,0.0280769231 L6.74301399,0.4775 C6.5998951,0.706346154 6.52437063,0.966923077 6.52437063,1.23153846 L6.54778322,1.54615385 Z M1.07546853,0.960192308 L5.97341958,0.960192308 C5.98927972,0.839038462 6.01514685,0.723846154 6.05026573,0.612884615 L0.99579021,0.612884615 C1.03223077,0.725961538 1.05904196,0.8425 1.07546853,0.960192308 Z" id="Shape"></path>
                <path d="M12.0168881,1.545 L9.29725175,1.545 L9.29725175,1.2525 L9.58443357,1.24096154 L9.30291608,1.19346154 C9.29951748,0.966730769 9.22437063,0.706346154 9.08087413,0.477307692 L8.80048951,0.0278846154 L12.0168881,0.0278846154 C12.4273636,0.0278846154 12.7604266,0.367692308 12.7604266,0.785576923 C12.7602378,1.20461538 12.4271748,1.545 12.0168881,1.545 Z M9.85575524,0.960192308 L12.0166993,0.960192308 C12.1097832,0.960192308 12.1858741,0.881923077 12.1858741,0.785961538 C12.1858741,0.690769231 12.1097832,0.613076923 12.0166993,0.613076923 L9.77494406,0.613076923 C9.81195105,0.725961538 9.83876224,0.8425 9.85575524,0.960192308 Z" id="Shape"></path>
            </g>
        </g>
    </g>
</svg>