<?xml version="1.0" encoding="UTF-8"?>
<svg width="10px" height="20px" viewBox="0 0 10 20" version="1.1" xmlns="http://www.w3.org/2000/svg" xmlns:xlink="http://www.w3.org/1999/xlink">
    <!-- Generator: Sketch 52.5 (67469) - http://www.bohemiancoding.com/sketch -->
    <title>waiting</title>
    <desc>Created with Sketch.</desc>
    <g id="waiting" stroke="none" stroke-width="1" fill="none" fill-rule="evenodd">
        <path d="M8.54940107,8.33616515 C9.47115793,7.58474216 9.99978761,6.43254609 9.99978761,5.17479399 L9.99978761,1.26306176 C9.99978761,1.09166596 9.96601818,0.925579815 9.89996602,0.770750149 C9.83603772,0.62016821 9.74513635,0.485302863 9.62365135,0.363817857 C9.59540396,0.335995243 9.56524509,0.310296491 9.53699771,0.288208309 C9.50322827,0.259111375 9.46945884,0.232987851 9.44503441,0.217483646 C9.23562144,0.0751847761 8.99031518,0.000212386373 8.73630108,0.000212386373 L5,0.000212386373 L1.26348653,0 C1.00947243,0 0.764166171,0.0751847761 0.570257412,0.2072891 C0.532665024,0.231501147 0.497621273,0.258049444 0.463851839,0.287358763 C0.433055815,0.311358423 0.403321723,0.337269561 0.369977062,0.369977062 C0.254651262,0.485515249 0.163749894,0.620380596 0.100246368,0.769688217 C0.0337694334,0.925792201 7.54547974e-16,1.09209073 7.54547974e-16,1.26327415 L7.54547974e-16,5.17500637 C7.54547974e-16,6.43275847 0.528629683,7.58495455 1.45038654,8.33637754 L3.61672755,9.99723898 L1.46928893,11.6474811 L1.45038654,11.6623481 C0.528629683,12.4137711 0,13.5659672 0,14.8237193 L0,18.7354515 C0,18.9068473 0.0337694334,19.0729335 0.0998215954,19.2277631 C0.163749894,19.3783451 0.254651262,19.5132104 0.376136267,19.6346954 C0.404383655,19.6625181 0.43454252,19.6882168 0.462789907,19.710305 C0.496559341,19.7394019 0.530328774,19.7655254 0.554753207,19.7810296 C0.764166171,19.9233285 1.00947243,19.9983009 1.26348653,19.9983009 L5,19.9980885 L8.73651347,19.9983009 C8.99052757,19.9983009 9.23583383,19.9231161 9.42974259,19.7910118 C9.46733498,19.7667998 9.50237873,19.7402515 9.53614816,19.7109421 C9.56694418,19.6869425 9.59667828,19.6610313 9.63002294,19.6283238 C9.74534874,19.5127857 9.83625011,19.3779203 9.89975363,19.2286127 C9.96623057,19.0725087 10,18.9062102 10,18.7350268 L10,14.8235069 C10,13.5657548 9.47137032,12.4135587 8.54961346,11.6621358 L6.38327245,10.0012743 L8.53071107,8.3510322 L8.54940107,8.33616515 Z M8.31556367,14.8235069 L8.31556367,18.314077 L5,18.3138646 L1.68443633,18.314077 L1.68443633,14.8235069 C1.68443633,14.3851414 1.79147906,13.5629938 2.5061592,12.9746835 L4.99723898,11.0606575 L7.49447795,12.9748959 C8.20852094,13.5632062 8.31556367,14.3849291 8.31556367,14.8235069 Z M8.31556367,5.17479399 C8.31556367,5.61315946 8.20852094,6.43530711 7.4938408,7.02361736 L5.00276102,8.93764336 L2.50552205,7.02340498 C1.79126667,6.43488234 1.68422394,5.61315946 1.68422394,5.17479399 L1.68422394,1.68422394 L5,1.68443633 L8.31556367,1.68422394 L8.31556367,5.17479399 Z" id="Shape-Copy-20" fill="#A1D6EC" fill-rule="nonzero"></path>
    </g>
</svg>